<svg xmlns="http://www.w3.org/2000/svg" viewBox="0 0 20 18"><path fill="#000" d="M5 4a1.667 1.667 0 0 1 1.667-1.667.833.833 0 1 0 0-1.666A3.333 3.333 0 0 0 3.333 4v2.5a1.667 1.667 0 0 1-1.666 1.667.833.833 0 1 0 0 1.666A1.667 1.667 0 0 1 3.333 11.5V14a3.333 3.333 0 0 0 3.334 3.333.833.833 0 1 0 0-1.666A1.666 1.666 0 0 1 5 14v-2.5A3.333 3.333 0 0 0 3.85 9 3.333 3.333 0 0 0 5 6.5V4Zm13.333 4.167A1.666 1.666 0 0 1 16.667 6.5V4A3.333 3.333 0 0 0 13.333.667a.833.833 0 0 0 0 1.666A1.667 1.667 0 0 1 15 4v2.5A3.334 3.334 0 0 0 16.15 9 3.333 3.333 0 0 0 15 11.5V14a1.667 1.667 0 0 1-1.667 1.667.833.833 0 0 0 0 1.666A3.333 3.333 0 0 0 16.667 14v-2.5a1.666 1.666 0 0 1 1.666-1.667.833.833 0 1 0 0-1.666Z"/></svg>
