<svg width="25" height="20" viewBox="0 0 25 20" fill="none" xmlns="http://www.w3.org/2000/svg">
<g clip-path="url(#clip0_519_28)">
<path d="M1.73391 19.3897C1.44555 19.3056 1.18793 19.153 0.980118 18.9505C0.765626 18.7414 0.604102 18.4793 0.516446 18.1842C0.0123056 16.4898 -0.115429 14.6774 0.10129 12.8828C0.220548 11.891 0.444806 10.9049 0.76965 9.94686C1.47672 7.85549 2.65856 5.89893 4.25824 4.31526C5.8766 2.71335 7.88078 1.53417 10.0211 0.8369C10.9872 0.521861 11.9813 0.305142 12.9802 0.191705C14.7708 -0.0116544 16.5765 0.117838 18.2665 0.610416C18.5224 0.685182 18.7542 0.813307 18.9482 0.982877C19.1987 1.20182 19.3866 1.48881 19.484 1.81588C19.9873 3.50811 20.115 5.31827 19.8996 7.11108C19.7808 8.10292 19.5565 9.08987 19.2321 10.0479C18.5251 12.1415 17.3428 14.0999 15.7418 15.6849C14.1252 17.2855 12.1228 18.4642 9.98422 19.1615C9.01863 19.4769 8.02453 19.6941 7.02602 19.8076C5.23363 20.0117 3.4257 19.8827 1.73391 19.3897Z" fill="#805120"/>
<path d="M15.4194 5.1035C15.4194 4.96776 15.3679 4.83196 15.2649 4.72791C15.0575 4.5183 14.7194 4.51662 14.5098 4.72403L4.84422 14.2936C4.63474 14.5012 4.63299 14.8392 4.84047 15.0487C5.04788 15.2583 5.38598 15.26 5.59552 15.0525L15.2612 5.48296C15.3666 5.37853 15.4194 5.24098 15.4194 5.1035Z" fill="white"/>
<path d="M8.36773 15.352C8.36773 15.2144 8.31493 15.077 8.2095 14.9725L4.90957 11.7053C4.70009 11.4978 4.362 11.4995 4.15451 11.7091C3.9471 11.9185 3.94866 12.2566 4.15826 12.4642L7.4582 15.7314C7.66768 15.9389 8.00577 15.9372 8.21325 15.7276C8.31624 15.6236 8.36773 15.4878 8.36773 15.352Z" fill="white"/>
<path d="M10.9118 12.8334C10.9118 12.6959 10.859 12.5584 10.7536 12.454L7.45363 9.1867C7.24415 8.97929 6.90606 8.98091 6.69858 9.19058C6.49116 9.39999 6.49273 9.73809 6.70233 9.94563L10.0023 13.2129C10.2117 13.4203 10.5498 13.4187 10.7573 13.2091C10.8604 13.105 10.9118 12.9692 10.9118 12.8334Z" fill="white"/>
<path d="M13.4559 10.3146C13.4559 10.1771 13.4031 10.0396 13.2977 9.93515L9.9977 6.6679C9.78822 6.46049 9.45013 6.46211 9.24265 6.67178C9.03523 6.88126 9.03679 7.21929 9.2464 7.42683L12.5463 10.6941C12.7558 10.9015 13.0939 10.8999 13.3014 10.6902C13.4044 10.5862 13.4559 10.4504 13.4559 10.3146Z" fill="white"/>
<path d="M16 7.79575C16 7.65821 15.9472 7.52078 15.8417 7.41629L12.5417 4.14911C12.3321 3.94169 11.9942 3.94331 11.7867 4.15298C11.5793 4.3624 11.5809 4.70049 11.7904 4.90803L15.0904 8.17522C15.3 8.38264 15.638 8.38101 15.8455 8.17134C15.9485 8.06729 16 7.93149 16 7.79575Z" fill="white"/>
<path d="M19.0508 20V18.8382L22.0636 15.8165C22.3517 15.5188 22.5918 15.2543 22.7839 15.0231C22.976 14.7919 23.1201 14.5679 23.2161 14.3512C23.3121 14.1344 23.3602 13.9032 23.3602 13.6575C23.3602 13.3772 23.298 13.1373 23.1737 12.9379C23.0494 12.7355 22.8785 12.5795 22.661 12.4697C22.4435 12.3598 22.1963 12.3049 21.9195 12.3049C21.6342 12.3049 21.3842 12.3656 21.1695 12.487C20.9548 12.6055 20.7881 12.7746 20.6695 12.9942C20.5537 13.2139 20.4958 13.4754 20.4958 13.7789H19C19 13.2153 19.1257 12.7254 19.3771 12.3092C19.6285 11.8931 19.9746 11.5708 20.4153 11.3425C20.8588 11.1142 21.3672 11 21.9407 11C22.5226 11 23.0339 11.1113 23.4746 11.3338C23.9153 11.5564 24.2571 11.8613 24.5 12.2486C24.7458 12.6358 24.8686 13.078 24.8686 13.5751C24.8686 13.9075 24.8065 14.2341 24.6822 14.5549C24.5579 14.8757 24.339 15.2312 24.0254 15.6214C23.7147 16.0116 23.2782 16.4841 22.7161 17.039L21.2203 18.5954V18.6561H25V20H19.0508Z" fill="#805120"/>
</g>
<defs>
<clipPath id="clip0_519_28">
<rect width="20" height="25" fill="white" transform="matrix(-4.37114e-08 1 1 4.37114e-08 0 0)"/>
</clipPath>
</defs>
</svg>
