<svg width="20" height="20" viewBox="0 0 20 20" fill="none" xmlns="http://www.w3.org/2000/svg">
<path d="M20 0V18H12V20H8V18H0V0C1 0 1 0 2 0V16H18V-2.80804e-05C19 -2.80804e-05 19 -0.00213408 20 0Z" fill="#805120"/>
<path d="M9.97342 13.1519C9.19243 13.1519 8.49821 13.0181 7.89077 12.7505C7.28695 12.483 6.80968 12.1106 6.45896 11.6333C6.10823 11.156 5.92202 10.6046 5.90033 9.9791H7.93959C7.95766 10.2792 8.0571 10.5413 8.23788 10.7655C8.41867 10.9861 8.65911 11.1578 8.95921 11.2808C9.25932 11.4037 9.59558 11.4652 9.96799 11.4652C10.3657 11.4652 10.7183 11.3965 11.0256 11.2591C11.3329 11.118 11.5734 10.9228 11.7469 10.6733C11.9205 10.4238 12.0054 10.1364 12.0018 9.81097C12.0054 9.47471 11.9187 9.17822 11.7415 8.92151C11.5643 8.66479 11.3076 8.46412 10.9714 8.31949C10.6387 8.17487 10.2374 8.10255 9.76732 8.10255H8.78566V6.55141H9.76732C10.1542 6.55141 10.4923 6.48452 10.7815 6.35074C11.0744 6.21696 11.304 6.02895 11.4703 5.78669C11.6366 5.54083 11.718 5.25699 11.7144 4.9352C11.718 4.62063 11.6475 4.34764 11.5029 4.11624C11.3618 3.88122 11.1612 3.69863 10.9008 3.56846C10.6441 3.43829 10.3422 3.37321 9.99511 3.37321C9.65524 3.37321 9.34067 3.43468 9.05141 3.55761C8.76216 3.68055 8.52895 3.85591 8.35178 4.0837C8.17461 4.30787 8.0806 4.57543 8.06975 4.88638H6.13354C6.14801 4.26448 6.32698 3.71851 6.67047 3.24847C7.01758 2.77481 7.48039 2.40601 8.0589 2.14207C8.63742 1.8745 9.28644 1.74072 10.006 1.74072C10.7472 1.74072 11.3908 1.87993 11.9367 2.15834C12.4863 2.43313 12.9112 2.80374 13.2113 3.27017C13.5114 3.73659 13.6614 4.25183 13.6614 4.81588C13.6651 5.44139 13.4806 5.96567 13.1082 6.38871C12.7394 6.81175 12.2549 7.08835 11.6547 7.21851V7.30529C12.4357 7.41376 13.0341 7.70302 13.4499 8.17306C13.8693 8.63948 14.0772 9.2198 14.0736 9.91402C14.0736 10.5359 13.8965 11.0927 13.5421 11.5845C13.1914 12.0726 12.7069 12.4559 12.0886 12.7343C11.4739 13.0127 10.7689 13.1519 9.97342 13.1519Z" fill="#805120"/>
</svg>
