<svg width="25" height="20" viewBox="0 0 25 20" fill="none" xmlns="http://www.w3.org/2000/svg">
<g clip-path="url(#clip0_519_51)">
<path d="M1.73391 19.3897C1.44555 19.3056 1.18793 19.153 0.980118 18.9505C0.765626 18.7414 0.604102 18.4793 0.516446 18.1842C0.0123056 16.4898 -0.115429 14.6774 0.10129 12.8828C0.220548 11.891 0.444806 10.9049 0.76965 9.94686C1.47672 7.85549 2.65856 5.89893 4.25824 4.31526C5.8766 2.71335 7.88078 1.53417 10.0211 0.8369C10.9872 0.521861 11.9813 0.305142 12.9802 0.191705C14.7708 -0.0116544 16.5765 0.117838 18.2665 0.610416C18.5224 0.685182 18.7542 0.813307 18.9482 0.982877C19.1987 1.20182 19.3866 1.48881 19.484 1.81588C19.9873 3.50811 20.115 5.31827 19.8996 7.11108C19.7808 8.10292 19.5565 9.08987 19.2321 10.0479C18.5251 12.1415 17.3428 14.0999 15.7418 15.6849C14.1252 17.2855 12.1228 18.4642 9.98422 19.1615C9.01863 19.4769 8.02453 19.6941 7.02602 19.8076C5.23363 20.0117 3.4257 19.8827 1.73391 19.3897Z" fill="#805120"/>
<path d="M15.4194 5.1035C15.4194 4.96776 15.3679 4.83196 15.2649 4.72791C15.0575 4.5183 14.7194 4.51662 14.5098 4.72403L4.84422 14.2936C4.63474 14.5012 4.63299 14.8392 4.84047 15.0487C5.04788 15.2583 5.38598 15.26 5.59552 15.0525L15.2612 5.48296C15.3666 5.37853 15.4194 5.24098 15.4194 5.1035Z" fill="white"/>
<path d="M8.36773 15.352C8.36773 15.2144 8.31493 15.077 8.2095 14.9725L4.90957 11.7053C4.70009 11.4978 4.362 11.4995 4.15451 11.7091C3.9471 11.9185 3.94866 12.2566 4.15826 12.4642L7.4582 15.7314C7.66768 15.9389 8.00577 15.9372 8.21325 15.7276C8.31624 15.6236 8.36773 15.4878 8.36773 15.352Z" fill="white"/>
<path d="M10.9118 12.8334C10.9118 12.6959 10.859 12.5584 10.7536 12.454L7.45363 9.1867C7.24415 8.97929 6.90606 8.98091 6.69858 9.19058C6.49116 9.39999 6.49273 9.73809 6.70233 9.94563L10.0023 13.2129C10.2117 13.4203 10.5498 13.4187 10.7573 13.2091C10.8604 13.105 10.9118 12.9692 10.9118 12.8334Z" fill="white"/>
<path d="M13.4559 10.3146C13.4559 10.1771 13.4031 10.0396 13.2977 9.93515L9.9977 6.6679C9.78822 6.46049 9.45013 6.46211 9.24265 6.67178C9.03523 6.88126 9.03679 7.21929 9.2464 7.42683L12.5463 10.6941C12.7558 10.9015 13.0939 10.8999 13.3014 10.6902C13.4044 10.5862 13.4559 10.4504 13.4559 10.3146Z" fill="white"/>
<path d="M16 7.79575C16 7.65821 15.9472 7.52078 15.8417 7.41629L12.5417 4.14911C12.3321 3.94169 11.9942 3.94331 11.7867 4.15298C11.5793 4.3624 11.5809 4.70049 11.7904 4.90803L15.0904 8.17522C15.3 8.38264 15.638 8.38101 15.8455 8.17134C15.9485 8.06729 16 7.93149 16 7.79575Z" fill="white"/>
<path d="M22.0868 20C21.7 19.9971 21.3224 19.9244 20.954 19.7818C20.5856 19.6364 20.254 19.4011 19.9593 19.076C19.6645 18.7481 19.4303 18.3132 19.2566 17.7714C19.083 17.2267 18.9974 16.5523 19.0001 15.7481C19.0001 14.9981 19.0737 14.3294 19.2211 13.7419C19.3685 13.1545 19.5803 12.6583 19.8566 12.2533C20.1329 11.8455 20.4658 11.5347 20.8553 11.3208C21.2474 11.1069 21.6855 11 22.1697 11C22.6776 11 23.1276 11.1084 23.5197 11.3251C23.9144 11.5418 24.2329 11.8384 24.475 12.2148C24.7171 12.5884 24.8671 13.0104 24.925 13.481H23.4842C23.4105 13.1445 23.2592 12.8764 23.0303 12.6768C22.8039 12.4743 22.5171 12.3731 22.1697 12.3731C21.6092 12.3731 21.1777 12.6369 20.875 13.1644C20.575 13.692 20.4237 14.4163 20.4211 15.3374H20.4763C20.6053 15.0865 20.7724 14.8712 20.9777 14.6915C21.1829 14.5119 21.4145 14.3736 21.6724 14.2766C21.9329 14.1768 22.2079 14.1269 22.4974 14.1269C22.971 14.1269 23.396 14.2495 23.7723 14.4948C24.1513 14.74 24.4513 15.0779 24.6723 15.5085C24.8934 15.9363 25.0026 16.4268 25 16.98C25.0026 17.5561 24.8815 18.0736 24.6368 18.5328C24.3921 18.989 24.0513 19.3483 23.6145 19.6107C23.1776 19.8731 22.6684 20.0028 22.0868 20ZM22.079 18.7167C22.3658 18.7167 22.6224 18.6411 22.8487 18.49C23.075 18.3388 23.2539 18.1349 23.3855 17.8783C23.5171 17.6216 23.5816 17.3336 23.5789 17.0142C23.5816 16.7005 23.5184 16.4168 23.3895 16.163C23.2631 15.9092 23.0881 15.7082 22.8645 15.5599C22.6408 15.4116 22.3855 15.3374 22.0987 15.3374C21.8855 15.3374 21.6869 15.3816 21.5026 15.47C21.3184 15.5584 21.1579 15.6811 21.0211 15.8379C20.8842 15.9919 20.7763 16.1716 20.6974 16.3769C20.6211 16.5793 20.5816 16.7961 20.579 17.0271C20.5816 17.3322 20.6474 17.6131 20.7763 17.8697C20.9053 18.1264 21.0829 18.3317 21.3092 18.4857C21.5355 18.6397 21.7921 18.7167 22.079 18.7167Z" fill="#805120"/>
</g>
<defs>
<clipPath id="clip0_519_51">
<rect width="20" height="25" fill="white" transform="matrix(-4.37114e-08 1 1 4.37114e-08 0 0)"/>
</clipPath>
</defs>
</svg>
