<svg width="52" height="52" viewBox="0 0 52 52" fill="none" xmlns="http://www.w3.org/2000/svg">
<path d="M0.857175 25.9499C0.857175 32.6016 3.49957 38.9809 8.20306 43.6844C12.9065 48.3879 19.2858 51.0303 25.9376 51.0303C32.5893 51.0303 38.9686 48.3879 43.6721 43.6844C48.3756 38.9809 51.018 32.6016 51.018 25.9499C51.018 19.2982 48.3756 12.9189 43.6721 8.21538C38.9686 3.5119 32.5893 0.869507 25.9376 0.869507C19.2858 0.869507 12.9065 3.5119 8.20306 8.21538C3.49957 12.9189 0.857175 19.2982 0.857175 25.9499Z" fill="black"/>
<path fill-rule="evenodd" clip-rule="evenodd" d="M33.696 16.7679L36.9943 20.8304C28.9557 26.7184 32.3756 47.2 23.463 50.906C17.1565 50.2862 11.5319 47.3265 7.47226 42.9084C15.5999 33.1458 24.0054 23.8511 33.6957 16.7679H33.696Z" fill="#D65A1E"/>
<path fill-rule="evenodd" clip-rule="evenodd" d="M28.957 12.2L32.51 15.753C20.7379 25.7325 13.2897 34.0936 6.88382 42.0608L6.77841 42.1223C3.08711 37.7546 0.862495 32.1091 0.862495 25.9475C0.862495 25.4492 0.87771 24.9541 0.906416 24.4631C5.3638 15.4688 22.1098 18.417 28.9569 12.2009L28.957 12.2Z" fill="#D65A1E"/>
<path fill-rule="evenodd" clip-rule="evenodd" d="M14.1257 5.30469C19.7212 5.36061 26.83 8.96043 27.5212 11.0185C27.2938 16.1848 3.545 14.6709 1.04619 23.1972L1.01105 23.2016C1.79608 16.0066 5.62654 9.72248 11.187 5.66915C12.0951 5.40537 13.0911 5.29428 14.1252 5.30461L14.1257 5.30469Z" fill="#D65A1E"/>
<path fill-rule="evenodd" clip-rule="evenodd" d="M25.9396 0.868896C27.198 0.868896 28.4375 0.961986 29.6463 1.14119C33.377 5.17963 31.3862 8.80754 29.3828 9.91626C27.673 11.1339 23.2632 3.51029 12.2059 4.96657C16.1523 2.37697 20.8698 0.868967 25.9394 0.868967L25.9396 0.868896Z" fill="#D65A1E"/>
<path fill-rule="evenodd" clip-rule="evenodd" d="M37.3711 22.3009C37.5997 22.3054 37.8393 22.3514 38.0914 22.4371C41.36 25.0018 47.3391 37.3442 43.8449 43.4957C43.8441 43.4964 43.8456 43.4993 43.8449 43.5001C39.2925 48.1421 32.9495 51.0234 25.9386 51.0234C25.7458 51.0234 25.555 51.0233 25.3632 51.019C32.9153 45.5611 31.2713 23.7991 37.3706 22.3009L37.3711 22.3009Z" fill="#D65A1E"/>
<path fill-rule="evenodd" clip-rule="evenodd" d="M43.4058 19.1345C46.1514 19.2217 49.3554 20.6607 50.8632 23.7899L50.9422 23.9788C50.9927 24.6284 51.0213 25.2839 51.0213 25.9464C51.0213 32.1505 48.7631 37.8296 45.0264 42.2097C48.4848 31.3531 37.9618 21.8075 39.1061 20.7464C39.8624 19.6501 41.5272 19.0749 43.4058 19.1345V19.1345Z" fill="#D65A1E"/>
<path fill-rule="evenodd" clip-rule="evenodd" d="M44.2007 8.7655C47.744 12.5297 50.1428 17.3858 50.8237 22.7757C48.158 18.3176 44.1816 16.6996 37.7534 20.0703L34.4551 15.9244C36.6087 13.9812 41.1505 10.626 44.2007 8.7655Z" fill="#D65A1E"/>
<path fill-rule="evenodd" clip-rule="evenodd" d="M30.7306 1.32562C35.6435 2.27681 40.046 4.66444 43.4846 8.03208L43.4232 8.14187C39.8059 9.78887 36.7122 12.4887 33.5239 14.9932L29.7206 11.4402C32.1987 8.94071 34.1108 6.21183 30.7307 1.32566L30.7306 1.32562Z" fill="#D65A1E"/>
<path fill-rule="evenodd" clip-rule="evenodd" d="M14.1257 5.30469C19.7212 5.36061 26.83 8.96043 27.5212 11.0185C27.2938 16.1848 3.545 14.6709 1.04619 23.1972L1.01105 23.2016C1.79608 16.0066 5.62654 9.72248 11.187 5.66915C12.0951 5.40537 13.0911 5.29428 14.1252 5.30461L14.1257 5.30469Z" fill="url(#paint0_linear)"/>
<path fill-rule="evenodd" clip-rule="evenodd" d="M25.9396 0.868896C27.198 0.868896 28.4375 0.961986 29.6463 1.14119C33.377 5.17963 31.3862 8.80754 29.3828 9.91626C27.673 11.1339 23.2632 3.51029 12.2059 4.96657C16.1523 2.37697 20.8698 0.868967 25.9394 0.868967L25.9396 0.868896Z" fill="url(#paint1_linear)"/>
<path fill-rule="evenodd" clip-rule="evenodd" d="M30.7306 1.32562C35.6435 2.27681 40.046 4.66444 43.4846 8.03208L43.4232 8.14187C39.8059 9.78887 36.7122 12.4887 33.5239 14.9932L29.7206 11.4402C32.1987 8.94071 34.1108 6.21183 30.7307 1.32566L30.7306 1.32562Z" fill="url(#paint2_linear)"/>
<path fill-rule="evenodd" clip-rule="evenodd" d="M44.2007 8.7655C47.744 12.5297 50.1428 17.3858 50.8237 22.7757C48.158 18.3176 44.1816 16.6996 37.7534 20.0703L34.4551 15.9244C36.6087 13.9812 41.1505 10.626 44.2007 8.7655Z" fill="url(#paint3_linear)"/>
<path fill-rule="evenodd" clip-rule="evenodd" d="M43.4058 19.1345C46.1514 19.2217 49.3554 20.6607 50.8632 23.7899L50.9422 23.9788C50.9927 24.6284 51.0213 25.2839 51.0213 25.9464C51.0213 32.1505 48.7631 37.8296 45.0264 42.2097C48.4848 31.3531 37.9618 21.8075 39.1061 20.7464C39.8624 19.6501 41.5272 19.0749 43.4058 19.1345V19.1345Z" fill="url(#paint4_linear)"/>
<path fill-rule="evenodd" clip-rule="evenodd" d="M37.3711 22.3009C37.5997 22.3054 37.8393 22.3514 38.0914 22.4371C41.36 25.0018 47.3391 37.3442 43.8449 43.4957C43.8441 43.4964 43.8456 43.4993 43.8449 43.5001C39.2925 48.1421 32.9495 51.0234 25.9386 51.0234C25.7458 51.0234 25.555 51.0233 25.3632 51.019C32.9153 45.5611 31.2713 23.7991 37.3706 22.3009L37.3711 22.3009Z" fill="url(#paint5_linear)"/>
<path fill-rule="evenodd" clip-rule="evenodd" d="M33.696 16.7679L36.9943 20.8304C28.9557 26.7184 32.3756 47.2 23.463 50.906C17.1565 50.2862 11.5319 47.3265 7.47226 42.9084C15.5999 33.1458 24.0054 23.8511 33.6957 16.7679H33.696Z" fill="url(#paint6_linear)"/>
<path fill-rule="evenodd" clip-rule="evenodd" d="M28.957 12.2L32.51 15.753C20.7379 25.7325 13.2897 34.0936 6.88382 42.0608L6.77841 42.1223C3.08711 37.7546 0.862495 32.1091 0.862495 25.9475C0.862495 25.4492 0.87771 24.9541 0.906416 24.4631C5.3638 15.4688 22.1098 18.417 28.9569 12.2009L28.957 12.2Z" fill="url(#paint7_linear)"/>
<path fill-rule="evenodd" clip-rule="evenodd" d="M28.957 12.2L32.51 15.753C20.7379 25.7325 13.2897 34.0936 6.88382 42.0608L6.77841 42.1223C3.08711 37.7546 0.862495 32.1091 0.862495 25.9475C0.862495 25.4492 0.87771 24.9541 0.906416 24.4631C5.3638 15.4688 22.1098 18.417 28.9569 12.2009L28.957 12.2Z" fill="url(#paint8_linear)"/>
<path fill-rule="evenodd" clip-rule="evenodd" d="M14.1257 5.30469C19.7212 5.36061 26.83 8.96043 27.5212 11.0185C27.2938 16.1848 3.545 14.6709 1.04619 23.1972L1.01105 23.2016C1.79608 16.0066 5.62654 9.72248 11.187 5.66915C12.0951 5.40537 13.0911 5.29428 14.1252 5.30461L14.1257 5.30469Z" fill="url(#paint9_linear)"/>
<path fill-rule="evenodd" clip-rule="evenodd" d="M25.9396 0.868896C27.198 0.868896 28.4375 0.961986 29.6463 1.14119C33.377 5.17963 31.3862 8.80754 29.3828 9.91626C27.673 11.1339 23.2632 3.51029 12.2059 4.96657C16.1523 2.37697 20.8698 0.868967 25.9394 0.868967L25.9396 0.868896Z" fill="url(#paint10_linear)"/>
<path fill-rule="evenodd" clip-rule="evenodd" d="M30.7306 1.32562C35.6435 2.27681 40.046 4.66444 43.4846 8.03208L43.4232 8.14187C39.8059 9.78887 36.7122 12.4887 33.5239 14.9932L29.7206 11.4402C32.1987 8.94071 34.1108 6.21183 30.7307 1.32566L30.7306 1.32562Z" fill="url(#paint11_linear)"/>
<path fill-rule="evenodd" clip-rule="evenodd" d="M44.2007 8.7655C47.744 12.5297 50.1428 17.3858 50.8237 22.7757C48.158 18.3176 44.1816 16.6996 37.7534 20.0703L34.4551 15.9244C36.6087 13.9812 41.1505 10.626 44.2007 8.7655Z" fill="url(#paint12_linear)"/>
<path fill-rule="evenodd" clip-rule="evenodd" d="M33.696 16.7679L36.9943 20.8304C28.9557 26.7184 32.3756 47.2 23.463 50.906C17.1565 50.2862 11.5319 47.3265 7.47226 42.9084C15.5999 33.1458 24.0054 23.8511 33.6957 16.7679H33.696Z" fill="url(#paint13_linear)"/>
<path fill-rule="evenodd" clip-rule="evenodd" d="M37.3711 22.3009C37.5997 22.3054 37.8393 22.3514 38.0914 22.4371C41.36 25.0018 47.3391 37.3442 43.8449 43.4957C43.8441 43.4964 43.8456 43.4993 43.8449 43.5001C39.2925 48.1421 32.9495 51.0234 25.9386 51.0234C25.7458 51.0234 25.555 51.0233 25.3632 51.019C32.9153 45.5611 31.2713 23.7991 37.3706 22.3009L37.3711 22.3009Z" fill="url(#paint14_linear)"/>
<path fill-rule="evenodd" clip-rule="evenodd" d="M43.4058 19.1345C46.1514 19.2217 49.3554 20.6607 50.8632 23.7899L50.9422 23.9788C50.9927 24.6284 51.0213 25.2839 51.0213 25.9464C51.0213 32.1505 48.7631 37.8296 45.0264 42.2097C48.4848 31.3531 37.9618 21.8075 39.1061 20.7464C39.8624 19.6501 41.5272 19.0749 43.4058 19.1345V19.1345Z" fill="url(#paint15_linear)"/>
<defs>
<linearGradient id="paint0_linear" x1="30.3118" y1="13.3224" x2="19.0278" y2="12.2228" gradientUnits="userSpaceOnUse">
<stop stop-color="#F57936"/>
<stop offset="1" stop-color="#F57936" stop-opacity="0"/>
</linearGradient>
<linearGradient id="paint1_linear" x1="29.1214" y1="10.0485" x2="28.0238" y2="4.78202" gradientUnits="userSpaceOnUse">
<stop stop-color="#F3813B"/>
<stop offset="1" stop-color="#F3813B" stop-opacity="0"/>
</linearGradient>
<linearGradient id="paint2_linear" x1="33.1662" y1="14.9928" x2="32.5126" y2="7.14434" gradientUnits="userSpaceOnUse">
<stop stop-color="#F9A465"/>
<stop offset="1" stop-color="#F9A465" stop-opacity="0"/>
</linearGradient>
<linearGradient id="paint3_linear" x1="35.9362" y1="18.1396" x2="44.4157" y2="15.77" gradientUnits="userSpaceOnUse">
<stop stop-color="#FAA668"/>
<stop offset="1" stop-color="#FAA668" stop-opacity="0"/>
</linearGradient>
<linearGradient id="paint4_linear" x1="39.6871" y1="20.9433" x2="45.0201" y2="24.7491" gradientUnits="userSpaceOnUse">
<stop stop-color="#F17E39"/>
<stop offset="1" stop-color="#F17E39" stop-opacity="0"/>
</linearGradient>
<linearGradient id="paint5_linear" x1="37.0395" y1="22.3009" x2="37.7127" y2="29.557" gradientUnits="userSpaceOnUse">
<stop stop-color="#F67A34"/>
<stop offset="1" stop-color="#F67A34" stop-opacity="0"/>
</linearGradient>
<linearGradient id="paint6_linear" x1="34.625" y1="19.1191" x2="28.7026" y2="25.2931" gradientUnits="userSpaceOnUse">
<stop stop-color="#FC9F59"/>
<stop offset="1" stop-color="#FC9F59" stop-opacity="0"/>
</linearGradient>
<linearGradient id="paint7_linear" x1="30.479" y1="14.7272" x2="23.5307" y2="19.2105" gradientUnits="userSpaceOnUse">
<stop stop-color="#FC9F59"/>
<stop offset="1" stop-color="#FC9F59" stop-opacity="0"/>
</linearGradient>
<linearGradient id="paint8_linear" x1="2.24584" y1="36.0135" x2="22.991" y2="19.2667" gradientUnits="userSpaceOnUse">
<stop stop-color="#9F410D"/>
<stop offset="1" stop-color="#9F410D" stop-opacity="0"/>
</linearGradient>
<linearGradient id="paint9_linear" x1="5.5106" y1="12.5782" x2="20.748" y2="12.3389" gradientUnits="userSpaceOnUse">
<stop stop-color="#A1420E"/>
<stop offset="1" stop-color="#A1420E" stop-opacity="0"/>
</linearGradient>
<linearGradient id="paint10_linear" x1="21.9749" y1="0.868897" x2="25.1244" y2="5.45872" gradientUnits="userSpaceOnUse">
<stop stop-color="#A1420E"/>
<stop offset="1" stop-color="#A1420E" stop-opacity="0"/>
</linearGradient>
<linearGradient id="paint11_linear" x1="39.2982" y1="2.05874" x2="36.6024" y2="6.12584" gradientUnits="userSpaceOnUse">
<stop stop-color="#A1420E"/>
<stop offset="1" stop-color="#A1420E" stop-opacity="0"/>
</linearGradient>
<linearGradient id="paint12_linear" x1="49.6275" y1="13.2586" x2="44.1443" y2="15.77" gradientUnits="userSpaceOnUse">
<stop stop-color="#A1420E"/>
<stop offset="1" stop-color="#A1420E" stop-opacity="0"/>
</linearGradient>
<linearGradient id="paint13_linear" x1="16.7777" y1="47.4732" x2="30.4383" y2="24.6255" gradientUnits="userSpaceOnUse">
<stop stop-color="#A1420D"/>
<stop offset="1" stop-color="#A1420D" stop-opacity="0"/>
</linearGradient>
<linearGradient id="paint14_linear" x1="36.1737" y1="48.3853" x2="37.2067" y2="30.5619" gradientUnits="userSpaceOnUse">
<stop stop-color="#A1420D"/>
<stop offset="1" stop-color="#A1420D" stop-opacity="0"/>
</linearGradient>
<linearGradient id="paint15_linear" x1="51.0214" y1="30.6701" x2="45.0201" y2="25.2874" gradientUnits="userSpaceOnUse">
<stop stop-color="#A3430E"/>
<stop offset="1" stop-color="#A3430E" stop-opacity="0"/>
</linearGradient>
</defs>
</svg>
