<svg width="51" height="34" viewBox="0 0 51 34" fill="none" xmlns="http://www.w3.org/2000/svg">
<g opacity="0.9">
<path d="M0.00264462 8.61829V25.5815H0.00786268C0.107489 30.2368 11.271 33.9995 25.035 33.9995C38.7989 33.9995 49.9684 30.2368 50.0671 25.5815H50.0723V8.61829H0.00137329H0.00264462Z" fill="#333333"/>
<path d="M50.0696 8.56225C50.1011 9.6828 49.4769 10.7944 48.2329 11.8327C46.989 12.871 45.15 13.8156 42.8222 14.6117C40.4944 15.4079 37.724 16.0398 34.6711 16.4711C31.6181 16.9024 28.3431 17.1245 25.0354 17.1245C21.7276 17.1245 18.4526 16.9024 15.3997 16.4711C12.3467 16.0398 9.57631 15.4079 7.24854 14.6117C4.92076 13.8156 3.08177 12.871 1.83782 11.8327C0.593865 10.7944 -0.0303853 9.6828 0.00113693 8.56225C-0.0303853 7.44171 0.593865 6.33015 1.83782 5.29181C3.08177 4.25348 4.92076 3.30894 7.24854 2.5128C9.57631 1.71665 12.3467 1.08467 15.3997 0.653365C18.4526 0.222066 21.7276 0 25.0354 0C28.3431 0 31.6181 0.222066 34.6711 0.653365C37.724 1.08467 40.4944 1.71665 42.8222 2.5128C45.15 3.30894 46.989 4.25348 48.2329 5.29181C49.4769 6.33015 50.1011 7.44171 50.0696 8.56225Z" fill="black"/>
<path d="M44.6194 8.5628C44.6441 9.37491 44.1558 10.1805 43.1828 10.933C42.2098 11.6856 40.7713 12.3701 38.9506 12.9471C37.1298 13.5241 34.9628 13.9821 32.5748 14.2947C30.1868 14.6073 27.6252 14.7682 25.0378 14.7682C22.4505 14.7682 19.8889 14.6073 17.5009 14.2947C15.1129 13.9821 12.9459 13.5241 11.1251 12.9471C9.30434 12.3701 7.86589 11.6856 6.89288 10.933C5.91987 10.1805 5.43159 9.37491 5.45624 8.5628C5.43159 7.75069 5.91987 6.9451 6.89288 6.19257C7.86589 5.44004 9.30434 4.7555 11.1251 4.17849C12.9459 3.60149 15.1129 3.14346 17.5009 2.83088C19.8889 2.5183 22.4505 2.35736 25.0378 2.35736C27.6252 2.35736 30.1868 2.5183 32.5748 2.83088C34.9628 3.14346 37.1298 3.60149 38.9506 4.17849C40.7713 4.7555 42.2098 5.44004 43.1828 6.19257C44.1558 6.9451 44.6441 7.75069 44.6194 8.5628Z" fill="black" stroke="#393939" stroke-width="5"/>
<path d="M44.0131 8.8084C44.037 9.58804 43.5638 10.3614 42.6209 11.0839C41.678 11.8063 40.2841 12.4635 38.5197 13.0174C36.7553 13.5713 34.6554 14.011 32.3413 14.3111C30.0272 14.6112 27.5448 14.7657 25.0376 14.7657C22.5303 14.7657 20.0479 14.6112 17.7338 14.3111C15.4198 14.011 13.3198 13.5713 11.5554 13.0174C9.791 12.4635 8.39708 11.8063 7.45418 11.0839C6.51128 10.3614 6.03811 9.58804 6.062 8.8084C6.03811 8.02876 6.51128 7.25538 7.45418 6.53294C8.39708 5.8105 9.791 5.15332 11.5554 4.59939C13.3198 4.04546 15.4198 3.60575 17.7338 3.30566C20.0479 3.00558 22.5303 2.85107 25.0376 2.85107C27.5448 2.85107 30.0272 3.00558 32.3413 3.30566C34.6554 3.60575 36.7553 4.04546 38.5197 4.59939C40.2841 5.15332 41.678 5.8105 42.6209 6.53294C43.5638 7.25538 44.037 8.02876 44.0131 8.8084Z" fill="black" stroke="#272D39" stroke-width="5.1839"/>
<path d="M21.3139 33.7747C10.2829 33.1274 2.09564 30.4141 0.392479 26.8422L0.107056 26.2433L0.113548 18.1579C0.117797 12.8768 0.160319 10.1722 0.236169 10.3596C0.682521 11.4625 2.32463 12.8376 4.37328 13.824C13.2627 18.1043 31.7594 18.6529 42.8634 14.9656C46.3908 13.7942 49.0729 12.043 49.8042 10.4338C50.0171 9.96514 50.0221 10.1629 49.9992 18.158L49.9757 26.3631L49.6537 26.9661C47.9941 30.0734 41.4225 32.5338 32.2205 33.493C29.9377 33.731 23.4308 33.8991 21.3131 33.7749L21.3139 33.7747Z" fill="url(#paint0_linear)"/>
</g>
<defs>
<linearGradient id="paint0_linear" x1="0.108059" y1="-30.1154" x2="33.7162" y2="-30.1154" gradientUnits="userSpaceOnUse">
<stop/>
<stop offset="0.21087" stop-color="white" stop-opacity="0.2028"/>
<stop offset="1" stop-opacity="0"/>
</linearGradient>
</defs>
</svg>
