<svg width="256" height="256" viewBox="0 0 256 256" fill="none" xmlns="http://www.w3.org/2000/svg">
<g clip-path="url(#clip0)">
<rect width="256" height="256" fill="white"/>
<rect width="256" height="256" fill="#D0E0B3"/>
<rect x="336.223" y="-22" width="50" height="321.548" transform="rotate(15 336.223 -22)" fill="#BFD79C"/>
<rect x="90.6545" y="-23.2844" width="50" height="301.377" transform="rotate(15 90.6545 -23.2844)" fill="#BFD79C"/>
<rect x="172.843" y="-20.2561" width="50" height="328.063" transform="rotate(15 172.843 -20.2561)" fill="#BFD79C"/>
<rect x="257.723" y="-27.2726" width="50" height="321.548" transform="rotate(15 257.723 -27.2726)" fill="#BFD79C"/>
<rect x="8.0022" y="-24" width="50" height="301.377" transform="rotate(15 8.0022 -24)" fill="#BFD79C"/>
<path d="M63.015 26.368C66.055 26.368 69.063 26.928 72.039 28.048L70.503 35.872L69.159 36.448C67.815 35.616 66.487 34.96 65.175 34.48C63.863 34 62.807 33.76 62.007 33.76C61.271 33.76 60.679 33.904 60.231 34.192C59.815 34.48 59.607 34.864 59.607 35.344C59.607 35.952 59.927 36.48 60.567 36.928C61.239 37.344 62.343 37.904 63.879 38.608C65.671 39.408 67.143 40.16 68.295 40.864C69.447 41.536 70.455 42.48 71.319 43.696C72.183 44.88 72.615 46.352 72.615 48.112C72.615 50.064 72.071 51.84 70.983 53.44C69.927 55.008 68.407 56.256 66.423 57.184C64.439 58.112 62.135 58.576 59.511 58.576C56.247 58.576 52.823 57.968 49.239 56.752L50.631 48.4L51.591 47.824C53.063 48.944 54.631 49.84 56.295 50.512C57.991 51.152 59.399 51.472 60.519 51.472C61.415 51.472 62.055 51.328 62.439 51.04C62.855 50.72 63.063 50.336 63.063 49.888C63.063 49.216 62.711 48.656 62.007 48.208C61.335 47.728 60.231 47.152 58.695 46.48C56.935 45.712 55.479 44.992 54.327 44.32C53.207 43.616 52.231 42.672 51.399 41.488C50.567 40.272 50.151 38.784 50.151 37.024C50.151 35.008 50.695 33.2 51.783 31.6C52.871 29.968 54.391 28.688 56.343 27.76C58.295 26.832 60.519 26.368 63.015 26.368ZM91.3504 26.896C94.8384 26.896 97.5104 27.76 99.3664 29.488C101.254 31.184 102.198 33.616 102.198 36.784C102.198 39.248 101.622 41.424 100.47 43.312C99.3184 45.168 97.6864 46.624 95.5744 47.68C93.4624 48.704 91.0304 49.216 88.2784 49.216H85.9264L86.2624 58H76.6144L77.0944 48.88L76.6144 26.944L91.3504 26.896ZM89.6224 42.496C90.4864 42.016 91.1104 41.408 91.4944 40.672C91.9104 39.904 92.1184 38.928 92.1184 37.744C92.1184 36.336 91.7824 35.312 91.1104 34.672C90.4384 34 89.3824 33.632 87.9424 33.568L86.2144 33.712L86.0224 42.304L89.6224 42.496ZM118.556 26.368C123.068 26.368 126.556 27.712 129.02 30.4C131.484 33.056 132.716 36.816 132.716 41.68C132.716 47.056 131.356 51.216 128.635 54.16C125.948 57.104 122.124 58.576 117.164 58.576C112.652 58.576 109.164 57.232 106.7 54.544C104.236 51.824 103.004 47.984 103.004 43.024C103.004 37.712 104.348 33.616 107.036 30.736C109.756 27.824 113.596 26.368 118.556 26.368ZM117.692 34.048C116.444 34.048 115.5 34.272 114.859 34.72C114.22 35.136 113.756 35.888 113.468 36.976C113.212 38.064 113.084 39.648 113.084 41.728C113.084 44.384 113.228 46.4 113.516 47.776C113.804 49.152 114.284 50.112 114.956 50.656C115.66 51.2 116.684 51.472 118.028 51.472C119.276 51.472 120.22 51.264 120.86 50.848C121.5 50.4 121.948 49.632 122.204 48.544C122.492 47.424 122.636 45.824 122.636 43.744C122.636 41.12 122.492 39.12 122.204 37.744C121.916 36.368 121.42 35.408 120.716 34.864C120.044 34.32 119.036 34.048 117.692 34.048ZM156.359 45.76C158.663 49.344 160.967 52.672 163.271 55.744L163.127 56.8C159.863 57.792 156.647 58.384 153.479 58.576L152.567 57.808L151.991 56.608C151.735 56.096 151.223 55.024 150.455 53.392C149.687 51.728 149.015 50.176 148.439 48.736H145.223L145.559 58H135.911L136.391 48.88L135.911 26.944L150.647 26.896C154.135 26.896 156.823 27.728 158.711 29.392C160.599 31.024 161.543 33.392 161.543 36.496C161.543 38.32 161.079 40.032 160.151 41.632C159.255 43.232 157.991 44.608 156.359 45.76ZM151.415 37.456C151.415 36.176 151.079 35.232 150.407 34.624C149.767 33.984 148.711 33.632 147.239 33.568L145.511 33.712L145.319 41.728L148.823 41.92C149.719 41.504 150.375 40.944 150.791 40.24C151.207 39.536 151.415 38.608 151.415 37.456ZM187.468 27.616L186.94 34.624L180.604 34.336H180.028L179.788 47.92L180.172 58H170.572L171.052 48.88L170.812 34.336H170.188L163.804 34.624L163.228 33.952L163.756 26.944H186.94L187.468 27.616ZM201.906 26.368C204.946 26.368 207.954 26.928 210.93 28.048L209.394 35.872L208.05 36.448C206.706 35.616 205.378 34.96 204.066 34.48C202.754 34 201.698 33.76 200.898 33.76C200.162 33.76 199.57 33.904 199.122 34.192C198.706 34.48 198.498 34.864 198.498 35.344C198.498 35.952 198.818 36.48 199.458 36.928C200.13 37.344 201.234 37.904 202.77 38.608C204.562 39.408 206.034 40.16 207.186 40.864C208.338 41.536 209.346 42.48 210.21 43.696C211.074 44.88 211.506 46.352 211.506 48.112C211.506 50.064 210.962 51.84 209.874 53.44C208.818 55.008 207.298 56.256 205.314 57.184C203.33 58.112 201.026 58.576 198.402 58.576C195.138 58.576 191.714 57.968 188.13 56.752L189.522 48.4L190.482 47.824C191.954 48.944 193.522 49.84 195.186 50.512C196.882 51.152 198.29 51.472 199.41 51.472C200.306 51.472 200.946 51.328 201.33 51.04C201.746 50.72 201.954 50.336 201.954 49.888C201.954 49.216 201.602 48.656 200.898 48.208C200.226 47.728 199.122 47.152 197.586 46.48C195.826 45.712 194.37 44.992 193.218 44.32C192.098 43.616 191.122 42.672 190.29 41.488C189.458 40.272 189.042 38.784 189.042 37.024C189.042 35.008 189.586 33.2 190.674 31.6C191.762 29.968 193.282 28.688 195.234 27.76C197.186 26.832 199.41 26.368 201.906 26.368ZM58.1413 98.8L57.5653 106H39.0853L39.5653 96.88L39.0853 74.944H48.8773L48.3493 95.92L48.4453 98.128H57.6133L58.1413 98.8ZM82.9644 98.32L83.4924 98.992L82.9164 106H61.0284L61.5084 96.88L61.0284 74.944H83.3004L83.8284 75.616L83.2044 82.624L75.5724 82.336H70.6284L70.5324 86.704H75.2844L80.2764 86.56L80.8044 87.232L80.2284 94.24L74.6604 94.096H70.3404L70.2924 95.92L70.3884 98.608H74.9964L82.9644 98.32ZM113.733 106H103.989L103.125 100.864L103.077 100.72L98.3732 100.624L94.4372 100.816L93.6212 106H84.2132L93.6212 74.944H105.237L113.733 106ZM101.637 93.712L99.5252 83.536H98.9492L96.2612 93.712L98.9492 93.76L101.637 93.712ZM131.609 74.416C135.065 74.416 138.057 74.896 140.585 75.856L138.521 84.352H137.753C136.153 83.552 134.761 82.976 133.577 82.624C132.425 82.272 131.161 82.096 129.785 82.096C128.313 82.096 127.177 82.336 126.377 82.816C125.609 83.296 125.049 84.144 124.697 85.36C124.345 86.576 124.169 88.336 124.169 90.64C124.169 92.976 124.345 94.768 124.697 96.016C125.049 97.232 125.641 98.096 126.473 98.608C127.337 99.088 128.569 99.328 130.169 99.328C130.617 99.328 131.193 99.264 131.897 99.136V97.6L131.753 92.368L140.537 91.744L140.393 95.968V104.464C136.681 105.872 132.985 106.576 129.305 106.576C124.281 106.576 120.489 105.248 117.929 102.592C115.369 99.904 114.089 96.08 114.089 91.12C114.089 85.68 115.593 81.536 118.601 78.688C121.641 75.84 125.977 74.416 131.609 74.416ZM170.667 90.688L170.619 95.632C170.587 99.152 169.403 101.856 167.067 103.744C164.731 105.632 161.387 106.576 157.035 106.576C152.843 106.576 149.627 105.632 147.387 103.744C145.179 101.856 144.123 99.152 144.219 95.632L144.363 90.688L144.075 74.944H153.723L153.291 94.336C153.259 95.968 153.563 97.152 154.203 97.888C154.875 98.624 155.947 98.992 157.419 98.992C158.923 98.992 160.011 98.624 160.683 97.888C161.355 97.152 161.675 95.968 161.643 94.336L161.211 74.944H171.003L170.667 90.688ZM198.043 98.32L198.571 98.992L197.995 106H176.107L176.587 96.88L176.107 74.944H198.379L198.907 75.616L198.283 82.624L190.651 82.336H185.707L185.611 86.704H190.363L195.355 86.56L195.883 87.232L195.307 94.24L189.739 94.096H185.419L185.371 95.92L185.467 98.608H190.075L198.043 98.32ZM213.835 74.368C216.875 74.368 219.883 74.928 222.859 76.048L221.323 83.872L219.979 84.448C218.635 83.616 217.307 82.96 215.995 82.48C214.683 82 213.627 81.76 212.827 81.76C212.091 81.76 211.499 81.904 211.051 82.192C210.635 82.48 210.427 82.864 210.427 83.344C210.427 83.952 210.747 84.48 211.387 84.928C212.059 85.344 213.163 85.904 214.699 86.608C216.491 87.408 217.963 88.16 219.115 88.864C220.267 89.536 221.275 90.48 222.139 91.696C223.003 92.88 223.435 94.352 223.435 96.112C223.435 98.064 222.891 99.84 221.803 101.44C220.747 103.008 219.227 104.256 217.243 105.184C215.259 106.112 212.955 106.576 210.331 106.576C207.067 106.576 203.643 105.968 200.059 104.752L201.451 96.4L202.411 95.824C203.883 96.944 205.451 97.84 207.115 98.512C208.811 99.152 210.219 99.472 211.339 99.472C212.235 99.472 212.875 99.328 213.259 99.04C213.675 98.72 213.883 98.336 213.883 97.888C213.883 97.216 213.531 96.656 212.827 96.208C212.155 95.728 211.051 95.152 209.515 94.48C207.755 93.712 206.299 92.992 205.147 92.32C204.027 91.616 203.051 90.672 202.219 89.488C201.387 88.272 200.971 86.784 200.971 85.024C200.971 83.008 201.515 81.2 202.603 79.6C203.691 77.968 205.211 76.688 207.163 75.76C209.115 74.832 211.339 74.368 213.835 74.368Z" fill="#09460C"/>
<g opacity="0.95">
<path d="M19.8571 154.95C19.8571 161.602 22.4995 167.981 27.203 172.684C31.9065 177.388 38.2858 180.03 44.9375 180.03C51.5893 180.03 57.9686 177.388 62.6721 172.684C67.3756 167.981 70.0179 161.602 70.0179 154.95C70.0179 148.298 67.3756 141.919 62.6721 137.215C57.9686 132.512 51.5893 129.87 44.9375 129.87C38.2858 129.87 31.9065 132.512 27.203 137.215C22.4995 141.919 19.8571 148.298 19.8571 154.95Z" fill="black"/>
<path fill-rule="evenodd" clip-rule="evenodd" d="M52.6959 145.768L55.9943 149.83C47.9556 155.718 51.3755 176.2 42.4629 179.906C36.1564 179.286 30.5318 176.326 26.4722 171.908C34.5998 162.146 43.0054 152.851 52.6956 145.768H52.6959Z" fill="#D65A1E"/>
<path fill-rule="evenodd" clip-rule="evenodd" d="M47.957 141.2L51.51 144.753C39.7379 154.733 32.2897 163.094 25.8838 171.061L25.7784 171.122C22.0871 166.755 19.8625 161.109 19.8625 154.947C19.8625 154.449 19.8777 153.954 19.9064 153.463C24.3638 144.469 41.1098 147.417 47.9569 141.201L47.957 141.2Z" fill="#D65A1E"/>
<path fill-rule="evenodd" clip-rule="evenodd" d="M33.1256 134.305C38.7211 134.361 45.8299 137.96 46.5211 140.019C46.2937 145.185 22.5449 143.671 20.0461 152.197L20.011 152.202C20.796 145.007 24.6265 138.722 30.1869 134.669C31.095 134.405 32.091 134.294 33.1251 134.305L33.1256 134.305Z" fill="#D65A1E"/>
<path fill-rule="evenodd" clip-rule="evenodd" d="M44.9396 129.869C46.198 129.869 47.4375 129.962 48.6463 130.141C52.377 134.18 50.3862 137.808 48.3828 138.916C46.673 140.134 42.2632 132.51 31.2059 133.967C35.1523 131.377 39.8698 129.869 44.9394 129.869L44.9396 129.869Z" fill="#D65A1E"/>
<path fill-rule="evenodd" clip-rule="evenodd" d="M56.3711 151.301C56.5997 151.305 56.8392 151.351 57.0914 151.437C60.3599 154.002 66.3391 166.344 62.8448 172.496C62.8441 172.496 62.8456 172.499 62.8448 172.5C58.2924 177.142 51.9494 180.023 44.9385 180.023C44.7458 180.023 44.5549 180.023 44.3632 180.019C51.9153 174.561 50.2712 152.799 56.3706 151.301L56.3711 151.301Z" fill="#D65A1E"/>
<path fill-rule="evenodd" clip-rule="evenodd" d="M62.4058 148.135C65.1514 148.222 68.3554 149.661 69.8631 152.79L69.9422 152.979C69.9927 153.628 70.0212 154.284 70.0212 154.946C70.0212 161.151 67.763 166.83 64.0263 171.21C67.4848 160.353 56.9618 150.807 58.1061 149.746C58.8624 148.65 60.5272 148.075 62.4058 148.135V148.135Z" fill="#D65A1E"/>
<path fill-rule="evenodd" clip-rule="evenodd" d="M63.2006 137.766C66.7439 141.53 69.1427 146.386 69.8236 151.776C67.158 147.318 63.1815 145.7 56.7533 149.07L53.455 144.924C55.6086 142.981 60.1505 139.626 63.2006 137.766Z" fill="#D65A1E"/>
<path fill-rule="evenodd" clip-rule="evenodd" d="M49.7306 130.326C54.6434 131.277 59.046 133.664 62.4846 137.032L62.4231 137.142C58.8059 138.789 55.7122 141.489 52.5239 143.993L48.7206 140.44C51.1987 137.941 53.1108 135.212 49.7307 130.326L49.7306 130.326Z" fill="#D65A1E"/>
<path fill-rule="evenodd" clip-rule="evenodd" d="M33.1256 134.305C38.7211 134.361 45.8299 137.96 46.5211 140.019C46.2937 145.185 22.5449 143.671 20.0461 152.197L20.011 152.202C20.796 145.007 24.6265 138.722 30.1869 134.669C31.095 134.405 32.091 134.294 33.1251 134.305L33.1256 134.305Z" fill="url(#paint0_linear)"/>
<path fill-rule="evenodd" clip-rule="evenodd" d="M44.9396 129.869C46.198 129.869 47.4375 129.962 48.6463 130.141C52.377 134.18 50.3862 137.808 48.3828 138.916C46.673 140.134 42.2632 132.51 31.2059 133.967C35.1523 131.377 39.8698 129.869 44.9394 129.869L44.9396 129.869Z" fill="url(#paint1_linear)"/>
<path fill-rule="evenodd" clip-rule="evenodd" d="M49.7306 130.326C54.6434 131.277 59.046 133.664 62.4846 137.032L62.4231 137.142C58.8059 138.789 55.7122 141.489 52.5239 143.993L48.7206 140.44C51.1987 137.941 53.1108 135.212 49.7307 130.326L49.7306 130.326Z" fill="url(#paint2_linear)"/>
<path fill-rule="evenodd" clip-rule="evenodd" d="M63.2006 137.766C66.7439 141.53 69.1427 146.386 69.8236 151.776C67.158 147.318 63.1815 145.7 56.7533 149.07L53.455 144.924C55.6086 142.981 60.1505 139.626 63.2006 137.766Z" fill="url(#paint3_linear)"/>
<path fill-rule="evenodd" clip-rule="evenodd" d="M62.4058 148.135C65.1514 148.222 68.3554 149.661 69.8631 152.79L69.9422 152.979C69.9927 153.628 70.0212 154.284 70.0212 154.946C70.0212 161.151 67.763 166.83 64.0263 171.21C67.4848 160.353 56.9618 150.807 58.1061 149.746C58.8624 148.65 60.5272 148.075 62.4058 148.135V148.135Z" fill="url(#paint4_linear)"/>
<path fill-rule="evenodd" clip-rule="evenodd" d="M56.3711 151.301C56.5997 151.305 56.8392 151.351 57.0914 151.437C60.3599 154.002 66.3391 166.344 62.8448 172.496C62.8441 172.496 62.8456 172.499 62.8448 172.5C58.2924 177.142 51.9494 180.023 44.9385 180.023C44.7458 180.023 44.5549 180.023 44.3632 180.019C51.9153 174.561 50.2712 152.799 56.3706 151.301L56.3711 151.301Z" fill="url(#paint5_linear)"/>
<path fill-rule="evenodd" clip-rule="evenodd" d="M52.6959 145.768L55.9943 149.83C47.9556 155.718 51.3755 176.2 42.4629 179.906C36.1564 179.286 30.5318 176.326 26.4722 171.908C34.5998 162.146 43.0054 152.851 52.6956 145.768H52.6959Z" fill="url(#paint6_linear)"/>
<path fill-rule="evenodd" clip-rule="evenodd" d="M47.957 141.2L51.51 144.753C39.7379 154.733 32.2897 163.094 25.8838 171.061L25.7784 171.122C22.0871 166.755 19.8625 161.109 19.8625 154.947C19.8625 154.449 19.8777 153.954 19.9064 153.463C24.3638 144.469 41.1098 147.417 47.9569 141.201L47.957 141.2Z" fill="url(#paint7_linear)"/>
<path fill-rule="evenodd" clip-rule="evenodd" d="M47.957 141.2L51.51 144.753C39.7379 154.733 32.2897 163.094 25.8838 171.061L25.7784 171.122C22.0871 166.755 19.8625 161.109 19.8625 154.947C19.8625 154.449 19.8777 153.954 19.9064 153.463C24.3638 144.469 41.1098 147.417 47.9569 141.201L47.957 141.2Z" fill="url(#paint8_linear)"/>
<path fill-rule="evenodd" clip-rule="evenodd" d="M33.1256 134.305C38.7211 134.361 45.8299 137.96 46.5211 140.019C46.2937 145.185 22.5449 143.671 20.0461 152.197L20.011 152.202C20.796 145.007 24.6265 138.722 30.1869 134.669C31.095 134.405 32.091 134.294 33.1251 134.305L33.1256 134.305Z" fill="url(#paint9_linear)"/>
<path fill-rule="evenodd" clip-rule="evenodd" d="M44.9396 129.869C46.198 129.869 47.4375 129.962 48.6463 130.141C52.377 134.18 50.3862 137.808 48.3828 138.916C46.673 140.134 42.2632 132.51 31.2059 133.967C35.1523 131.377 39.8698 129.869 44.9394 129.869L44.9396 129.869Z" fill="url(#paint10_linear)"/>
<path fill-rule="evenodd" clip-rule="evenodd" d="M49.7306 130.326C54.6434 131.277 59.046 133.664 62.4846 137.032L62.4231 137.142C58.8059 138.789 55.7122 141.489 52.5239 143.993L48.7206 140.44C51.1987 137.941 53.1108 135.212 49.7307 130.326L49.7306 130.326Z" fill="url(#paint11_linear)"/>
<path fill-rule="evenodd" clip-rule="evenodd" d="M63.2006 137.766C66.7439 141.53 69.1427 146.386 69.8236 151.776C67.158 147.318 63.1815 145.7 56.7533 149.07L53.455 144.924C55.6086 142.981 60.1505 139.626 63.2006 137.766Z" fill="url(#paint12_linear)"/>
<path fill-rule="evenodd" clip-rule="evenodd" d="M52.6959 145.768L55.9943 149.83C47.9556 155.718 51.3755 176.2 42.4629 179.906C36.1564 179.286 30.5318 176.326 26.4722 171.908C34.5998 162.146 43.0054 152.851 52.6956 145.768H52.6959Z" fill="url(#paint13_linear)"/>
<path fill-rule="evenodd" clip-rule="evenodd" d="M56.3711 151.301C56.5997 151.305 56.8392 151.351 57.0914 151.437C60.3599 154.002 66.3391 166.344 62.8448 172.496C62.8441 172.496 62.8456 172.499 62.8448 172.5C58.2924 177.142 51.9494 180.023 44.9385 180.023C44.7458 180.023 44.5549 180.023 44.3632 180.019C51.9153 174.561 50.2712 152.799 56.3706 151.301L56.3711 151.301Z" fill="url(#paint14_linear)"/>
<path fill-rule="evenodd" clip-rule="evenodd" d="M62.4058 148.135C65.1514 148.222 68.3554 149.661 69.8631 152.79L69.9422 152.979C69.9927 153.628 70.0212 154.284 70.0212 154.946C70.0212 161.151 67.763 166.83 64.0263 171.21C67.4848 160.353 56.9618 150.807 58.1061 149.746C58.8624 148.65 60.5272 148.075 62.4058 148.135V148.135Z" fill="url(#paint15_linear)"/>
<g clip-path="url(#clip1)">
<path fill-rule="evenodd" clip-rule="evenodd" d="M102.104 154.991C102.104 168.792 113.498 179.982 127.552 179.982C141.607 179.982 153.001 168.793 153.001 154.991C153.001 141.189 141.607 130 127.552 130C113.497 130 102.104 141.189 102.104 154.991V154.991Z" fill="#F0EBE6"/>
<path fill-rule="evenodd" clip-rule="evenodd" d="M129.743 130.61C129.148 131.132 132.164 133.223 132.154 134.414C132.087 135.546 130.319 136.359 129.589 137.53C128.859 138.692 129.503 139.776 127.851 141.411C126.141 143.027 122.173 144.866 119.618 147.189C117.062 149.502 114.882 153.326 112.672 155.184C110.424 156.994 107.619 156.771 106.332 158.068C105.035 159.345 104.766 160.846 104.968 162.869C105.121 164.872 105.611 167.834 107.437 170.04C109.262 172.228 111.654 175.615 115.91 175.867C120.175 176.031 127.793 175.122 132.836 171.231C137.851 167.272 143.365 157.487 145.824 152.59C148.226 147.683 147.553 144.76 147.256 142.098C146.89 139.456 145.238 138.236 143.931 136.765C142.625 135.265 140.877 134.084 139.503 133.184C138.12 132.274 137.284 131.761 135.66 131.345C133.989 130.89 130.338 130.097 129.743 130.61H129.743Z" fill="#E1DDD8"/>
<path fill-rule="evenodd" clip-rule="evenodd" d="M138.878 133.349C138.369 133.775 139.733 135.739 139.483 137.375C139.166 139.011 138.1 141.024 137.216 143.008C136.342 144.934 136.025 147.422 134.267 148.941C132.461 150.422 127.955 150.219 126.495 151.913C125.025 153.568 127.6 157.642 125.438 158.91C123.2 160.149 116.207 158.349 113.43 159.365C110.654 160.372 109.809 163.082 108.973 164.921C108.127 166.73 107.916 168.54 108.521 170.244C109.146 171.928 110.827 173.767 112.565 175.016C114.275 176.216 116.879 176.961 118.714 177.551C120.51 178.122 120.981 178.722 123.392 178.461C125.813 178.19 130.232 177.977 133.056 175.877C135.804 173.67 137.466 168.705 139.935 165.608C142.404 162.501 146.256 161.03 147.783 157.536C149.224 153.984 148.984 147.819 148.84 144.683C148.686 141.547 148.062 140.531 147.005 138.905C145.9 137.259 143.931 135.827 142.547 134.907C141.164 133.93 139.387 132.962 138.878 133.349Z" fill="#D8D4CF"/>
<path fill-rule="evenodd" clip-rule="evenodd" d="M151.146 145.843C150.723 144.537 150.627 143.869 149.926 142.95C149.167 142.011 147.534 139.998 146.804 140.423C146.074 140.859 146.237 142.891 145.593 145.592C144.902 148.302 144.056 154.07 142.798 156.47C141.482 158.803 139.416 158.3 138.043 159.664C136.669 161.01 136.698 163.284 134.719 164.543C132.701 165.762 128.647 165.414 126.188 167.049C123.7 168.685 122.144 172.837 120.001 174.279C117.811 175.673 113.075 174.579 113.353 175.441C113.68 176.263 118.407 178.625 121.826 179.312C125.246 179.98 129.819 180.415 133.652 179.496C137.447 178.538 141.414 176.438 144.44 173.718C147.438 170.94 150.128 167.117 151.511 163.216C152.817 159.316 152.491 153.47 152.423 150.566C152.356 147.653 151.55 147.111 151.146 145.843Z" fill="#D0CCC8"/>
<path fill-rule="evenodd" clip-rule="evenodd" d="M118.234 177.9C118.359 178.161 124.036 179.39 127.005 179.497C129.963 179.545 132.98 179.371 135.91 178.267C138.811 177.135 142.529 174.241 144.316 172.828C146.064 171.405 147.755 169.334 146.429 169.789C145.027 170.244 139.599 174.173 136.217 175.567C132.836 176.922 129.358 177.609 126.342 178.006C123.316 178.384 118.119 177.638 118.234 177.9Z" fill="#B1A59C"/>
<path fill-rule="evenodd" clip-rule="evenodd" d="M115.102 143.25C115.035 143.211 114.747 143.192 114.535 143.153C114.295 143.066 113.997 142.96 113.757 142.873C113.488 142.776 113.248 142.65 112.998 142.64C112.739 142.602 112.46 142.708 112.239 142.66C111.999 142.592 111.817 142.35 111.577 142.311C111.298 142.224 110.933 142.311 110.664 142.272C110.405 142.214 110.165 142.127 109.982 142.127C109.79 142.108 109.703 142.243 109.502 142.272C109.261 142.272 108.858 142.166 108.628 142.214C108.387 142.234 108.243 142.292 108.042 142.389C107.801 142.447 107.34 142.524 107.283 142.582C107.225 142.631 107.446 142.601 107.648 142.601C107.83 142.534 108.051 142.408 108.311 142.369C108.493 142.34 108.714 142.36 108.973 142.389C109.252 142.379 109.675 142.379 109.905 142.389C110.069 142.36 109.953 142.321 110.078 142.311C110.174 142.301 110.338 142.34 110.568 142.389C110.779 142.398 111.145 142.389 111.442 142.466C111.73 142.514 112.009 142.776 112.278 142.834C112.509 142.872 112.681 142.747 112.941 142.795C113.171 142.814 113.498 143.008 113.738 143.076C113.949 143.134 114.151 143.144 114.343 143.211C114.516 143.26 114.689 143.337 114.824 143.366C114.939 143.337 115.131 143.298 115.102 143.25Z" fill="#A52914"/>
<path fill-rule="evenodd" clip-rule="evenodd" d="M105.995 143.579C105.986 143.56 105.62 143.869 105.457 144.092C105.284 144.228 105.169 144.402 105.006 144.615C104.804 144.837 104.545 145.166 104.381 145.379C104.227 145.573 103.987 145.825 104.074 145.795C104.112 145.728 104.506 145.331 104.737 145.089C104.958 144.837 105.13 144.595 105.361 144.363C105.553 144.092 105.976 143.618 105.995 143.579Z" fill="#A52914"/>
<path fill-rule="evenodd" clip-rule="evenodd" d="M103.449 148.912C103.507 148.825 103.449 148.022 103.392 147.809C103.353 147.557 103.228 147.48 103.2 147.499C103.142 147.518 103.075 147.76 103.036 147.925C102.969 148.051 102.719 148.089 102.806 148.264C102.873 148.448 103.334 148.951 103.449 148.912Z" fill="#E2391C"/>
<path fill-rule="evenodd" clip-rule="evenodd" d="M103.036 150.17C103.027 149.977 102.902 149.56 102.844 149.444C102.738 149.299 102.642 149.212 102.594 149.328C102.566 149.415 102.546 149.725 102.614 149.957C102.642 150.141 102.758 150.48 102.844 150.528C102.902 150.519 103.027 150.374 103.036 150.17Z" fill="#E2391C"/>
<path fill-rule="evenodd" clip-rule="evenodd" d="M102.594 152.251C102.613 152.067 102.594 151.826 102.575 151.68C102.517 151.506 102.345 151.283 102.277 151.312C102.191 151.332 102.104 151.574 102.162 151.816C102.22 152.048 102.45 152.609 102.556 152.716C102.594 152.754 102.594 152.425 102.594 152.251Z" fill="#CF341A"/>
<path fill-rule="evenodd" clip-rule="evenodd" d="M102.402 154.158C102.431 154.071 102.345 153.539 102.296 153.384C102.2 153.229 102.124 153.18 102.066 153.239C102.008 153.277 101.96 153.577 102.027 153.732C102.056 153.868 102.354 154.197 102.402 154.158Z" fill="#CF341A"/>
<path fill-rule="evenodd" clip-rule="evenodd" d="M102.316 155.261C102.239 155.252 102.076 155.755 102.047 155.949C102.028 156.094 102.085 156.248 102.181 156.258C102.239 156.258 102.364 156.162 102.402 156.007C102.422 155.823 102.354 155.261 102.316 155.261Z" fill="#CF341A"/>
<path fill-rule="evenodd" clip-rule="evenodd" d="M102.422 157.681C102.374 157.7 102.153 158.02 102.162 158.223C102.133 158.387 102.258 158.678 102.316 158.678C102.345 158.63 102.431 158.329 102.46 158.146C102.489 157.971 102.441 157.642 102.422 157.681Z" fill="#CF341A"/>
<path fill-rule="evenodd" clip-rule="evenodd" d="M114.247 143.289C114.007 143.666 113.2 144.779 112.864 145.321C112.518 145.824 112.384 146.299 112.278 146.366C112.153 146.415 112.153 145.805 112.124 145.621C112.057 145.408 111.827 145.379 111.99 145.089C112.124 144.76 112.691 144.053 113.056 143.715C113.411 143.318 113.882 143.124 114.103 143.027C114.276 142.921 114.449 142.921 114.247 143.289Z" fill="#F13D2F"/>
<path fill-rule="evenodd" clip-rule="evenodd" d="M110.452 145.815C110.606 145.612 111.096 144.615 111.365 144.17C111.615 143.744 111.855 143.531 112.047 143.308C112.22 143.066 112.643 142.708 112.537 142.718C112.403 142.689 111.73 143.008 111.404 143.269C111.067 143.531 110.702 143.957 110.529 144.286C110.328 144.576 110.27 144.818 110.28 145.089C110.241 145.321 110.26 145.96 110.452 145.815Z" fill="#F13D2F"/>
<path fill-rule="evenodd" clip-rule="evenodd" d="M109.127 145.418C109.271 145.167 109.569 144.189 109.867 143.676C110.126 143.163 110.683 142.553 110.798 142.369C110.875 142.147 110.654 142.301 110.433 142.466C110.164 142.621 109.742 142.969 109.463 143.289C109.204 143.579 108.973 143.966 108.916 144.266C108.82 144.528 108.906 144.789 108.954 144.973C108.973 145.147 108.944 145.631 109.127 145.418Z" fill="#F13D2F"/>
<path fill-rule="evenodd" clip-rule="evenodd" d="M107.868 145.283C108.022 145.186 108.406 144.14 108.647 143.753C108.896 143.337 109.069 142.998 109.242 142.776C109.377 142.524 109.444 142.369 109.405 142.35C109.309 142.321 109.069 142.398 108.839 142.621C108.598 142.863 108.233 143.289 108.041 143.637C107.801 143.898 107.676 144.073 107.628 144.344C107.599 144.624 107.667 145.36 107.868 145.283Z" fill="#F13D2F"/>
<path fill-rule="evenodd" clip-rule="evenodd" d="M106.898 145.321C106.965 145.166 107.023 144.615 107.109 144.266C107.186 143.957 107.302 143.637 107.494 143.347C107.676 142.989 108.195 142.389 108.234 142.292C108.253 142.186 107.849 142.515 107.648 142.718C107.407 142.892 107.138 143.115 106.956 143.385C106.764 143.656 106.572 143.957 106.524 144.247C106.447 144.489 106.485 144.711 106.562 144.915C106.6 145.07 106.812 145.428 106.898 145.321Z" fill="#F13D2F"/>
<path fill-rule="evenodd" clip-rule="evenodd" d="M106.898 142.931C106.85 143.018 106.495 143.318 106.351 143.676C106.187 144.024 106.062 144.576 105.976 144.954C105.87 145.273 105.851 145.689 105.803 145.757C105.736 145.825 105.697 145.583 105.649 145.399C105.573 145.186 105.505 144.857 105.553 144.557C105.592 144.237 105.89 143.811 106.043 143.579C106.197 143.328 106.331 143.192 106.485 143.095C106.619 142.979 106.917 142.824 106.898 142.931Z" fill="#F13D2F"/>
<path fill-rule="evenodd" clip-rule="evenodd" d="M104.909 146.812C104.813 146.647 104.612 146.086 104.641 145.757C104.66 145.389 104.986 144.828 105.102 144.702C105.198 144.576 105.332 144.683 105.323 144.915C105.284 145.108 105.044 145.534 105.006 145.854C104.977 146.144 105.034 146.512 105.063 146.696C105.025 146.831 104.986 146.957 104.909 146.812Z" fill="#F13D2F"/>
<path fill-rule="evenodd" clip-rule="evenodd" d="M104.055 147.693C104.064 147.528 103.872 147.121 103.891 146.773C103.92 146.396 104.16 145.738 104.17 145.621C104.141 145.486 103.843 145.883 103.757 146.067C103.661 146.212 103.536 146.396 103.565 146.657C103.546 146.918 103.641 147.431 103.738 147.634C103.795 147.809 104.026 147.828 104.055 147.693Z" fill="#F13D2F"/>
<path fill-rule="evenodd" clip-rule="evenodd" d="M109.405 142.273C109.252 142.195 109.165 142.031 109.146 141.74C109.069 141.45 108.983 141.014 109.146 140.579C109.309 140.104 109.962 139.156 110.184 139.001C110.376 138.817 110.366 139.214 110.337 139.563C110.27 139.892 109.953 140.569 109.905 140.995C109.818 141.421 110.097 141.818 110.001 142.069C109.867 142.273 109.569 142.301 109.405 142.273Z" fill="#F13D2F"/>
<path fill-rule="evenodd" clip-rule="evenodd" d="M110.981 142.389C110.894 142.185 110.827 141.46 110.818 141.111C110.77 140.763 110.808 140.463 110.894 140.211C110.99 139.911 111.154 139.63 111.423 139.408C111.682 139.175 112.326 138.798 112.393 138.914C112.422 139.011 111.798 139.553 111.634 140.017C111.442 140.472 111.365 141.15 111.327 141.566C111.269 141.914 111.298 142.137 111.269 142.272C111.192 142.418 111.058 142.544 110.981 142.389Z" fill="#F13D2F"/>
<path fill-rule="evenodd" clip-rule="evenodd" d="M112.412 142.679C112.316 142.389 112.297 141.547 112.355 141.092C112.412 140.618 112.518 140.298 112.71 139.979C112.864 139.64 113.306 139.117 113.411 139.156C113.488 139.185 113.306 139.505 113.267 140.076C113.2 140.618 113.19 141.905 113.133 142.369C113.075 142.776 113.018 142.66 112.922 142.699C112.777 142.718 112.508 142.96 112.412 142.679Z" fill="#F13D2F"/>
<path fill-rule="evenodd" clip-rule="evenodd" d="M114.17 143.134C114.007 142.824 114.017 142.234 114.084 141.663C114.132 141.101 114.324 140.114 114.516 139.824C114.699 139.524 115.074 139.572 115.16 139.824C115.218 140.056 114.939 140.608 114.92 141.111C114.881 141.576 114.929 142.273 114.958 142.64C114.968 142.969 115.054 143.134 114.958 143.211C114.795 143.279 114.324 143.376 114.17 143.134Z" fill="#F13D2F"/>
<path fill-rule="evenodd" clip-rule="evenodd" d="M108.627 142.292C108.685 142.224 108.55 142.108 108.589 141.76C108.598 141.382 108.848 140.337 108.819 140.076C108.771 139.756 108.493 139.824 108.387 140.017C108.253 140.182 108.118 140.821 108.099 141.189C108.041 141.537 108.06 141.963 108.157 142.166C108.233 142.35 108.55 142.331 108.627 142.292Z" fill="#F13D2F"/>
<path fill-rule="evenodd" clip-rule="evenodd" d="M107.378 142.544C107.417 142.389 107.253 142.205 107.263 141.914C107.253 141.566 107.465 140.869 107.417 140.724C107.369 140.588 107.023 140.898 106.936 141.131C106.802 141.343 106.735 141.711 106.735 142.011C106.735 142.282 106.783 142.631 106.917 142.757C107.023 142.824 107.302 142.679 107.378 142.544Z" fill="#F13D2F"/>
<path fill-rule="evenodd" clip-rule="evenodd" d="M106.351 143.153C106.389 142.95 106.226 142.66 106.235 142.427C106.245 142.176 106.331 141.779 106.274 141.721C106.158 141.663 105.803 141.895 105.688 142.011C105.582 142.079 105.544 142.05 105.572 142.224C105.553 142.379 105.553 142.766 105.611 143.008C105.669 143.211 105.784 143.502 105.918 143.541C106.043 143.541 106.274 143.337 106.351 143.153Z" fill="#F13D2F"/>
<path fill-rule="evenodd" clip-rule="evenodd" d="M105.246 144.383C105.255 144.266 105.102 144.044 105.082 143.792C105.063 143.56 105.188 143.066 105.159 142.989C105.092 142.892 104.938 143.086 104.852 143.192C104.765 143.25 104.689 143.24 104.698 143.424C104.669 143.57 104.708 144.073 104.813 144.228C104.881 144.392 105.198 144.431 105.246 144.383Z" fill="#F13D2F"/>
<path fill-rule="evenodd" clip-rule="evenodd" d="M104.525 145.186C104.554 145.079 104.401 144.963 104.362 144.876C104.324 144.75 104.391 144.45 104.343 144.46C104.275 144.46 104.035 144.673 103.997 144.837C103.92 144.934 103.92 145.05 103.958 145.186C103.968 145.321 103.987 145.612 104.093 145.641C104.189 145.612 104.458 145.321 104.525 145.186Z" fill="#F13D2F"/>
<path fill-rule="evenodd" clip-rule="evenodd" d="M115.621 143.56C115.861 143.55 116.12 143.569 116.361 143.579C116.601 143.56 116.87 143.579 117.062 143.637C117.206 143.705 117.177 143.821 117.379 143.947C117.581 144.034 117.821 144.102 118.205 144.189C118.186 144.179 118.263 144.198 118.436 144.169C118.58 144.15 119.137 144.044 119.146 144.073C119.137 144.073 118.647 144.276 118.455 144.305C118.244 144.315 118.022 144.247 117.83 144.208C117.609 144.15 117.321 144.073 117.187 144.015C117.033 143.918 117.052 143.802 116.908 143.773C116.745 143.734 116.351 143.821 116.168 143.811C115.947 143.782 115.765 143.686 115.621 143.56Z" fill="#A52914"/>
<path fill-rule="evenodd" clip-rule="evenodd" d="M122.028 144.547C122.077 144.508 122.643 144.673 122.912 144.702C123.143 144.702 123.239 144.644 123.498 144.644C123.767 144.615 124.094 144.528 124.401 144.566C124.661 144.595 124.747 144.76 125.103 144.837C125.458 144.895 126.39 144.944 126.457 144.982C126.476 145.021 125.573 145.06 125.266 145.06C124.949 145.002 124.786 144.808 124.517 144.779C124.19 144.75 123.7 144.895 123.383 144.915C123.056 144.915 122.806 144.895 122.595 144.857C122.374 144.779 121.952 144.576 122.028 144.547Z" fill="#A52914"/>
<path fill-rule="evenodd" clip-rule="evenodd" d="M116.111 143.57C116.015 143.279 115.996 142.437 116.053 141.982C116.092 141.508 116.207 141.189 116.399 140.869C116.553 140.53 116.995 140.008 117.1 140.047C117.167 140.076 117.023 140.395 116.966 140.966C116.908 141.508 116.86 142.795 116.822 143.26C116.764 143.666 116.707 143.55 116.611 143.589C116.486 143.608 116.197 143.85 116.111 143.57Z" fill="#F13D2F"/>
<path fill-rule="evenodd" clip-rule="evenodd" d="M118.512 144.141C118.32 143.86 118.224 143.279 118.224 142.698C118.186 142.127 118.253 141.14 118.388 140.821C118.522 140.482 118.906 140.501 119.021 140.724C119.098 140.908 118.945 141.556 118.973 142.04C119.012 142.524 119.137 143.163 119.233 143.541C119.281 143.86 119.406 144.015 119.31 144.112C119.156 144.189 118.705 144.373 118.512 144.141Z" fill="#F13D2F"/>
<path fill-rule="evenodd" clip-rule="evenodd" d="M121.126 144.605C120.885 144.354 120.578 143.618 120.424 143.182C120.28 142.728 120.232 142.389 120.28 142.021C120.309 141.624 120.463 141.005 120.588 140.985C120.655 140.956 120.664 141.353 120.837 141.876C121.01 142.379 121.5 143.579 121.644 144.024C121.76 144.421 121.654 144.324 121.587 144.411C121.5 144.499 121.299 144.799 121.126 144.605Z" fill="#F13D2F"/>
<path fill-rule="evenodd" clip-rule="evenodd" d="M123.498 144.76C123.335 144.644 123.489 144.402 123.325 144.034C123.114 143.628 122.615 142.853 122.461 142.495C122.317 142.098 122.336 141.866 122.48 141.798C122.576 141.702 122.903 141.808 123.162 142.079C123.431 142.34 123.844 143.066 124.065 143.434C124.248 143.773 124.334 144.005 124.363 144.208C124.392 144.402 124.324 144.547 124.199 144.644C124.036 144.75 123.642 144.828 123.498 144.76Z" fill="#F13D2F"/>
<path fill-rule="evenodd" clip-rule="evenodd" d="M114.161 146.744C114.314 146.541 114.804 145.544 115.073 145.099C115.323 144.673 115.563 144.46 115.755 144.237C115.928 143.995 116.351 143.637 116.245 143.647C116.111 143.618 115.438 143.937 115.112 144.199C114.776 144.46 114.411 144.886 114.238 145.215C114.036 145.505 113.978 145.747 113.988 146.018C113.949 146.251 113.969 146.889 114.161 146.744Z" fill="#F13D2F"/>
<path fill-rule="evenodd" clip-rule="evenodd" d="M116.86 147.354C117.014 147.102 117.36 146.125 117.677 145.612C117.984 145.099 118.57 144.489 118.695 144.305C118.781 144.082 118.522 144.237 118.292 144.402C118.032 144.557 117.504 144.905 117.225 145.224C116.946 145.515 116.697 145.902 116.63 146.202C116.553 146.463 116.591 146.725 116.668 146.909C116.668 147.083 116.706 147.567 116.86 147.354Z" fill="#F13D2F"/>
<path fill-rule="evenodd" clip-rule="evenodd" d="M121.154 144.75C120.914 145.128 120.107 146.241 119.771 146.783C119.444 147.286 119.29 147.76 119.195 147.828C119.07 147.876 119.07 147.267 119.041 147.083C118.983 146.87 118.724 146.841 118.897 146.55C119.06 146.221 119.579 145.515 119.973 145.176C120.328 144.818 120.799 144.557 121.02 144.499C121.202 144.402 121.346 144.373 121.154 144.75Z" fill="#F13D2F"/>
<path fill-rule="evenodd" clip-rule="evenodd" d="M121.952 147.905C121.798 147.77 121.712 147.499 121.769 147.131C121.836 146.773 122.019 146.163 122.24 145.825C122.394 145.457 122.634 145.089 122.816 144.944C122.999 144.77 123.181 144.808 123.326 144.876C123.441 144.915 123.604 144.799 123.518 145.273C123.374 145.728 122.826 147.17 122.576 147.625C122.307 148.051 122.086 147.983 121.952 147.905Z" fill="#F13D2F"/>
<path fill-rule="evenodd" clip-rule="evenodd" d="M124.69 147.664C124.574 147.596 124.603 147.412 124.737 147.073C124.891 146.705 125.237 146.018 125.516 145.65C125.746 145.273 125.977 145.021 126.169 144.896C126.227 144.799 126.159 144.537 125.967 144.189C125.717 143.792 125.15 143.076 124.968 142.708C124.786 142.34 124.805 142.011 124.987 142.06C125.151 142.127 125.669 142.495 126.063 142.979C126.447 143.424 127.101 144.266 127.245 144.683C127.331 145.05 126.928 144.886 126.736 145.273C126.524 145.65 126.294 146.473 126.082 146.957C125.861 147.421 125.621 147.876 125.4 148.022C125.17 148.128 124.92 148.022 124.69 147.664Z" fill="#F13D2F"/>
<path fill-rule="evenodd" clip-rule="evenodd" d="M130.78 148.08C130.665 148.031 130.665 147.838 130.742 147.46C130.828 147.063 131.068 146.27 131.279 145.863C131.472 145.437 131.616 145.137 131.818 144.963C131.846 144.837 131.74 144.605 131.5 144.266C131.203 143.908 130.511 143.23 130.28 142.902C130.059 142.524 129.982 142.214 130.194 142.234C130.386 142.253 130.924 142.582 131.404 142.998C131.846 143.385 132.634 144.169 132.845 144.566C132.989 144.934 132.567 144.818 132.432 145.263C132.269 145.699 132.202 146.579 132.048 147.121C131.885 147.634 131.75 148.138 131.539 148.331C131.337 148.486 131.059 148.39 130.78 148.08Z" fill="#F13D2F"/>
<path fill-rule="evenodd" clip-rule="evenodd" d="M129.243 145.166C129.07 145.05 129.137 144.799 128.926 144.411C128.657 144.015 127.917 143.26 127.706 142.892C127.485 142.505 127.466 142.214 127.61 142.127C127.706 142.011 128.042 142.059 128.398 142.311C128.715 142.553 129.32 143.25 129.618 143.618C129.896 143.947 130.002 144.198 130.089 144.411C130.146 144.605 130.098 144.798 129.983 144.915C129.82 145.041 129.426 145.224 129.243 145.166Z" fill="#F13D2F"/>
<path fill-rule="evenodd" clip-rule="evenodd" d="M127.639 148.409C127.466 148.283 127.389 147.954 127.447 147.577C127.495 147.16 127.735 146.58 127.946 146.173C128.138 145.757 128.359 145.399 128.571 145.244C128.792 145.079 128.936 145.089 129.109 145.166C129.224 145.205 129.426 145.099 129.31 145.592C129.128 146.086 128.609 147.606 128.311 148.099C128.023 148.544 127.773 148.486 127.639 148.409Z" fill="#F13D2F"/>
<path fill-rule="evenodd" clip-rule="evenodd" d="M133.768 145.312C133.778 145.254 134.114 145.147 134.296 145.099C134.488 145.021 134.662 144.915 134.921 144.896C135.17 144.847 135.458 144.847 135.785 144.857C136.083 144.857 136.285 144.925 136.688 144.876C137.063 144.779 137.688 144.508 138.081 144.47C138.484 144.421 138.927 144.654 138.965 144.683C138.956 144.692 138.341 144.499 138.043 144.586C137.706 144.673 137.361 145.031 137.005 145.137C136.631 145.176 136.189 145.05 135.901 145.021C135.564 144.983 135.545 144.915 135.219 145.002C134.882 145.06 134.258 145.438 134.018 145.496C133.739 145.515 133.73 145.379 133.768 145.312Z" fill="#A52914"/>
<path fill-rule="evenodd" clip-rule="evenodd" d="M133.557 148.167C133.441 148.119 133.422 147.925 133.499 147.547C133.576 147.141 133.768 146.338 133.96 145.921C134.114 145.486 134.277 145.196 134.45 145.011C134.411 144.857 134.296 144.595 134.104 144.334C133.893 144.034 133.479 143.647 133.278 143.318C133.047 142.979 132.711 142.35 132.865 142.331C133.009 142.282 133.72 142.689 134.181 143.066C134.613 143.463 135.286 144.15 135.458 144.566C135.603 144.944 135.17 144.818 135.084 145.273C134.968 145.708 134.882 146.608 134.786 147.15C134.642 147.683 134.527 148.167 134.335 148.38C134.123 148.534 133.864 148.476 133.557 148.167Z" fill="#E2391C"/>
<path fill-rule="evenodd" clip-rule="evenodd" d="M137.044 144.779C136.861 144.692 136.871 144.431 136.554 144.112C136.198 143.753 135.343 142.999 135.065 142.708C134.786 142.379 134.719 142.282 134.901 142.272C135.094 142.243 135.574 142.35 136.045 142.631C136.477 142.911 137.169 143.579 137.457 143.927C137.688 144.218 137.688 144.431 137.61 144.566C137.515 144.673 137.226 144.866 137.044 144.779Z" fill="#E2391C"/>
<path fill-rule="evenodd" clip-rule="evenodd" d="M136.65 147.925C136.592 147.799 136.736 147.402 136.746 146.996C136.688 146.541 136.419 145.709 136.457 145.399C136.477 145.099 136.726 145.06 136.909 145.176C137.101 145.263 137.408 145.534 137.495 145.989C137.534 146.405 137.322 147.383 137.197 147.722C137.034 148.041 136.726 148.022 136.65 147.925Z" fill="#E2391C"/>
<path fill-rule="evenodd" clip-rule="evenodd" d="M139.041 147.586C138.936 147.373 139.253 146.657 139.253 146.183C139.234 145.699 138.965 144.982 139.003 144.74C139.013 144.499 139.244 144.479 139.397 144.682C139.541 144.847 139.685 145.302 139.791 145.747C139.858 146.173 139.983 146.928 139.868 147.266C139.734 147.586 139.138 147.731 139.041 147.586Z" fill="#E2391C"/>
<path fill-rule="evenodd" clip-rule="evenodd" d="M139.551 144.857C139.628 144.76 139.801 144.489 139.81 144.228C139.791 143.976 140.002 143.686 139.551 143.318C139.051 142.882 137.456 141.982 137.063 141.818C136.669 141.682 137.005 142.098 137.293 142.427C137.553 142.737 138.417 143.173 138.744 143.579C139.051 143.918 139.042 144.402 139.195 144.625C139.311 144.828 139.455 144.905 139.551 144.857Z" fill="#E2391C"/>
<path fill-rule="evenodd" clip-rule="evenodd" d="M141.29 146.947C141.184 146.938 141.126 146.744 141.117 146.405C141.097 146.038 141.165 145.244 141.241 144.847C141.309 144.431 141.386 144.112 141.511 143.928C141.443 143.763 141.299 143.579 141.078 143.376C140.819 143.144 140.396 142.863 140.146 142.612C139.888 142.321 139.455 141.876 139.589 141.799C139.724 141.731 140.425 141.934 140.915 142.224C141.376 142.505 142.125 142.989 142.346 143.337C142.548 143.628 142.145 143.618 142.135 144.053C142.126 144.47 142.174 145.263 142.203 145.796C142.183 146.28 142.164 146.793 142.03 146.996C141.876 147.189 141.616 147.16 141.29 146.947Z" fill="#CF341A"/>
<path fill-rule="evenodd" clip-rule="evenodd" d="M141.77 134.259C141.828 134.201 142.299 134.288 142.51 134.443C142.654 134.559 142.769 134.917 142.75 134.994C142.683 135.052 142.51 134.897 142.337 134.791C142.154 134.626 141.741 134.326 141.77 134.259Z" fill="#A52914"/>
<path fill-rule="evenodd" clip-rule="evenodd" d="M143.202 135.285C143.422 135.304 143.672 135.333 143.845 135.41C144.028 135.459 144.21 135.556 144.316 135.662C144.393 135.739 144.412 135.846 144.335 135.943C144.546 135.865 144.71 135.904 144.863 136.02C144.998 136.136 145.084 136.359 145.161 136.688C145.267 136.717 145.411 136.785 145.593 136.93C145.767 137.075 146.141 137.404 146.161 137.501C146.151 137.54 145.738 137.394 145.555 137.288C145.334 137.181 145.171 137.036 144.96 136.853C144.892 136.678 144.748 136.552 144.633 136.436C144.47 136.32 144.335 136.214 144.124 136.155C144.066 136.01 143.961 135.884 143.884 135.817C143.788 135.739 143.682 135.749 143.566 135.701C143.451 135.604 143.317 135.478 143.202 135.285Z" fill="#A52914"/>
<path fill-rule="evenodd" clip-rule="evenodd" d="M144.95 137.578C145.229 137.578 145.497 137.617 145.795 137.733C146.093 137.82 146.449 137.946 146.718 138.188C146.939 138.43 147.121 138.701 147.227 139.117C146.785 138.875 146.391 138.614 146.007 138.372C145.603 138.101 145.286 137.849 144.95 137.578Z" fill="#A52914"/>
<path fill-rule="evenodd" clip-rule="evenodd" d="M147.438 139.872C147.572 140.056 147.717 140.259 147.909 140.482C148.072 140.705 148.283 140.937 148.504 141.218C148.591 141.005 148.562 140.743 148.379 140.54C148.207 140.308 147.88 140.085 147.438 139.872Z" fill="#A52914"/>
<path fill-rule="evenodd" clip-rule="evenodd" d="M147.188 140.085C147.169 139.717 147.035 139.466 146.679 139.224C146.314 138.972 145.834 138.837 145.132 138.711C145.266 138.885 145.45 139.088 145.641 139.243C145.814 139.408 146.122 139.553 146.304 139.679C146.449 139.737 146.573 139.737 146.717 139.795C146.871 139.853 147.015 139.95 147.188 140.085Z" fill="#A52914"/>
<path fill-rule="evenodd" clip-rule="evenodd" d="M148.716 142.079C148.639 141.914 148.197 141.373 148.014 141.16C147.793 140.927 147.409 140.666 147.486 140.821C147.553 140.956 148.178 141.798 148.398 142.04C148.581 142.224 148.773 142.224 148.716 142.079Z" fill="#A52914"/>
<path fill-rule="evenodd" clip-rule="evenodd" d="M146.986 140.956C146.919 140.995 146.592 140.53 146.189 140.308C145.766 140.037 144.691 139.698 144.518 139.553C144.325 139.388 144.729 139.408 144.988 139.456C145.238 139.485 145.689 139.717 145.968 139.814C146.179 139.901 146.304 139.805 146.458 140.008C146.631 140.201 147.006 140.879 146.986 140.956Z" fill="#A52914"/>
<path fill-rule="evenodd" clip-rule="evenodd" d="M148.504 144.063C148.6 144.063 148.302 143.066 148.129 142.679C147.918 142.292 147.544 142.021 147.342 141.827C147.111 141.624 147.006 141.518 146.871 141.508C146.727 141.479 146.631 141.769 146.545 141.75C146.449 141.711 146.449 141.479 146.324 141.314C146.16 141.101 146.026 140.792 145.622 140.608C145.181 140.405 143.98 140.114 143.797 140.143C143.595 140.153 144.181 140.327 144.556 140.627C144.911 140.898 145.747 141.46 145.987 141.75C146.17 142.011 145.766 142.089 145.814 142.282C145.862 142.437 146.093 142.592 146.323 142.892C146.506 143.212 146.929 143.763 147.073 144.141C147.188 144.499 147.121 145.012 147.169 144.973C147.188 144.876 147.466 144.257 147.342 143.783C147.178 143.308 146.467 142.495 146.362 142.205C146.237 141.905 146.496 141.876 146.698 141.963C146.9 141.963 147.149 142.166 147.486 142.495C147.793 142.834 148.379 144.015 148.504 144.063Z" fill="#A52914"/>
<path fill-rule="evenodd" clip-rule="evenodd" d="M142.683 141.072C142.731 140.976 143.451 140.917 143.913 141.16C144.364 141.372 145.132 142.002 145.363 142.34C145.565 142.621 145.036 142.698 145.113 142.989C145.161 143.269 145.555 143.628 145.699 144.063C145.805 144.47 145.93 145.447 145.853 145.467C145.756 145.457 145.449 144.499 145.228 144.16C144.969 143.792 144.633 143.57 144.556 143.347C144.479 143.076 145.017 142.94 144.873 142.679C144.7 142.379 143.989 141.982 143.624 141.711C143.23 141.421 142.644 141.16 142.683 141.072Z" fill="#C03018"/>
<path fill-rule="evenodd" clip-rule="evenodd" d="M141.088 141.547C141.078 141.711 142.817 142.921 143.192 143.308C143.499 143.686 143.153 143.55 143.192 143.763C143.24 143.928 143.298 143.928 143.441 144.392C143.566 144.857 143.787 146.366 143.95 146.531C144.104 146.647 144.297 145.67 144.306 145.205C144.258 144.682 143.835 143.995 143.777 143.666C143.71 143.328 144.076 143.482 143.989 143.269C143.893 143.027 143.691 142.63 143.23 142.34C142.73 142.031 141.078 141.382 141.088 141.547Z" fill="#C03018"/>
<path fill-rule="evenodd" clip-rule="evenodd" d="M109.002 171.937C108.935 171.966 109.04 172.402 109.204 172.615C109.329 172.799 109.675 172.954 109.761 172.973C109.828 172.954 109.799 172.683 109.675 172.528C109.531 172.325 109.06 171.928 109.002 171.937Z" fill="#C03018"/>
<path fill-rule="evenodd" clip-rule="evenodd" d="M110.904 173.854C110.856 173.864 111.019 174.183 111.135 174.289C111.221 174.386 111.336 174.483 111.404 174.473C111.461 174.415 111.48 174.27 111.423 174.154C111.298 174.038 110.952 173.815 110.904 173.854Z" fill="#C03018"/>
<path fill-rule="evenodd" clip-rule="evenodd" d="M112.835 175.625C112.797 175.48 112.787 175.364 112.768 175.238C112.749 175.103 112.749 174.996 112.768 174.88L112.278 174.764C112.364 175.016 112.461 175.199 112.566 175.354C112.662 175.499 112.739 175.577 112.835 175.625Z" fill="#C03018"/>
<path fill-rule="evenodd" clip-rule="evenodd" d="M114.007 176.274C113.969 176.138 113.959 176.012 113.94 175.896C113.921 175.751 113.921 175.664 113.94 175.528L113.44 175.422C113.527 175.664 113.623 175.857 113.729 176.003C113.834 176.148 113.892 176.225 114.007 176.274Z" fill="#C03018"/>
<path fill-rule="evenodd" clip-rule="evenodd" d="M115.477 177.203C115.438 177 115.381 176.825 115.381 176.642C115.362 176.457 115.362 176.264 115.381 176.1L114.814 175.983C114.881 176.312 114.958 176.612 115.083 176.806C115.179 177.019 115.323 177.125 115.477 177.203Z" fill="#C03018"/>
<path fill-rule="evenodd" clip-rule="evenodd" d="M117.023 177.764C116.966 177.541 116.927 177.309 116.908 177.106C116.889 176.883 116.889 176.69 116.908 176.486L116.245 176.341C116.313 176.738 116.418 177.057 116.562 177.3C116.678 177.532 116.831 177.687 117.023 177.764Z" fill="#C03018"/>
<path fill-rule="evenodd" clip-rule="evenodd" d="M118.57 178.18C118.368 178.151 118.224 178.064 118.061 177.842C117.888 177.59 117.6 176.961 117.638 176.883C117.667 176.806 117.994 177.145 118.205 177.377C118.359 177.571 118.609 177.939 118.695 178.074C118.772 178.18 118.772 178.18 118.695 178.074C118.849 178.161 119.002 178.258 119.118 178.365C119.214 178.451 119.454 178.568 119.435 178.636C119.396 178.684 119.099 178.771 118.954 178.713C118.82 178.645 118.666 178.441 118.57 178.18Z" fill="#C03018"/>
<path fill-rule="evenodd" clip-rule="evenodd" d="M120.549 178.654C120.319 178.645 120.097 178.51 119.925 178.248C119.694 177.967 119.416 177.155 119.425 177.077C119.464 176.98 119.877 177.406 120.107 177.687C120.309 177.919 120.578 178.374 120.693 178.529C120.789 178.664 120.789 178.664 120.693 178.529C120.885 178.654 121.058 178.732 121.212 178.867C121.375 178.974 121.587 179.109 121.587 179.197C121.519 179.284 121.193 179.342 121.01 179.293C120.837 179.187 120.684 178.974 120.549 178.654Z" fill="#C03018"/>
<path fill-rule="evenodd" clip-rule="evenodd" d="M122.518 178.664C122.221 178.761 121.952 178.635 121.635 178.287C121.289 177.929 120.655 176.651 120.664 176.545C120.684 176.419 121.375 177.183 121.74 177.532C122.077 177.851 122.49 178.287 122.682 178.471C122.836 178.625 122.836 178.625 122.682 178.471C122.97 178.567 123.181 178.674 123.422 178.79C123.633 178.887 123.979 179.013 123.979 179.129C123.95 179.235 123.489 179.419 123.268 179.38C123.008 179.284 122.759 179.071 122.518 178.664Z" fill="#C03018"/>
<path fill-rule="evenodd" clip-rule="evenodd" d="M123.489 177.88C122.999 177.716 122.682 177.493 122.461 177.135C122.23 176.748 122.134 175.896 122.211 175.78C122.269 175.664 122.682 176.099 122.932 176.457C123.162 176.806 123.421 177.213 123.671 177.793C124.785 178.18 125.362 178.441 125.506 178.577C125.612 178.674 124.728 178.625 124.411 178.577C124.094 178.538 123.738 178.451 123.604 178.354C123.441 178.248 123.402 178.064 123.489 177.88Z" fill="#C03018"/>
<path fill-rule="evenodd" clip-rule="evenodd" d="M125.237 177L125.439 176.729C125.199 176.574 125.016 176.39 124.815 176.07C124.584 175.751 124.44 174.967 124.276 174.88C124.123 174.754 123.931 175.189 123.921 175.441C123.883 175.673 123.95 175.964 124.123 176.274C124.296 176.574 124.565 176.864 124.968 177.183C124.786 177.358 124.738 177.493 124.862 177.629C124.949 177.735 125.218 177.87 125.669 177.929C126.092 177.977 126.697 177.997 127.485 177.948C126.841 177.803 126.332 177.687 125.958 177.522C125.583 177.357 125.343 177.183 125.237 177Z" fill="#C03018"/>
<path fill-rule="evenodd" clip-rule="evenodd" d="M127.408 176.158L127.649 175.896C127.408 175.722 127.207 175.48 127.043 175.132C126.87 174.764 126.707 173.941 126.592 173.815C126.428 173.68 126.198 174.115 126.16 174.377C126.083 174.599 126.14 174.938 126.294 175.277C126.438 175.587 126.707 175.935 127.101 176.322C126.88 176.487 126.813 176.642 126.938 176.787C127.034 176.903 127.283 177.087 127.764 177.183C128.215 177.27 128.859 177.338 129.695 177.387C129.003 177.174 128.513 176.971 128.119 176.777C127.716 176.583 127.514 176.341 127.408 176.158Z" fill="#C03018"/>
<path fill-rule="evenodd" clip-rule="evenodd" d="M129.262 175.189L129.464 174.889C129.214 174.764 128.993 174.541 128.763 174.222C128.532 173.893 128.273 173.07 128.129 172.983C127.937 172.877 127.783 173.331 127.773 173.602C127.735 173.854 127.821 174.144 128.033 174.473C128.234 174.764 128.542 175.083 128.994 175.393C128.811 175.577 128.753 175.751 128.897 175.877C129.003 175.993 129.291 176.109 129.762 176.148C130.223 176.158 130.867 176.167 131.693 176.07C131.011 175.974 130.454 175.838 130.06 175.703C129.656 175.557 129.377 175.374 129.262 175.189Z" fill="#C03018"/>
<path fill-rule="evenodd" clip-rule="evenodd" d="M131.068 173.883C131.184 174.067 131.683 173.941 131.789 173.583C131.866 173.167 131.654 172.17 131.558 171.754C131.433 171.357 131.135 171.173 131.068 171.279C130.982 171.367 130.972 171.831 131.001 172.296C130.972 172.721 130.943 173.651 131.068 173.883Z" fill="#C03018"/>
<path fill-rule="evenodd" clip-rule="evenodd" d="M131.404 174.222C131.424 174.28 131.404 174.318 131.309 174.444C131.203 174.541 131.02 174.677 130.799 174.851C130.972 174.996 131.241 175.131 131.606 175.219C131.933 175.296 132.538 175.422 132.903 175.374C133.268 175.306 133.528 175.18 133.758 174.919C133.316 175.016 132.932 174.977 132.529 174.88C132.135 174.744 131.76 174.551 131.404 174.222Z" fill="#C03018"/>
<path fill-rule="evenodd" clip-rule="evenodd" d="M134.901 172.431C134.931 172.48 134.998 172.422 135.103 172.296C135.199 172.151 135.334 171.899 135.507 171.58C135.603 171.454 135.718 171.376 135.891 171.309C136.054 171.221 136.314 171.221 136.515 171.192C136.679 171.134 136.851 171.221 137.034 171.076C137.198 170.921 137.303 170.37 137.572 170.244C137.812 170.079 138.206 170.127 138.533 170.127C138.878 170.099 139.186 170.137 139.455 170.06C139.657 169.934 139.676 169.692 139.81 169.518C139.926 169.305 140.003 169.092 140.262 168.995C140.502 168.908 140.905 168.995 141.251 168.956C141.568 168.908 141.876 168.782 142.173 168.656C141.635 168.888 141.27 169.072 140.963 169.208C140.684 169.324 140.521 169.276 140.396 169.43C140.214 169.566 140.348 169.876 139.945 170.06C139.493 170.234 138.388 170.234 137.927 170.466C137.466 170.65 137.562 171.105 137.216 171.308C136.823 171.473 136.102 171.473 135.795 171.647C135.497 171.792 135.603 172.179 135.488 172.324C135.362 172.45 135.113 172.421 135.036 172.46C134.94 172.47 134.882 172.46 134.901 172.431Z" fill="#A52914"/>
<path fill-rule="evenodd" clip-rule="evenodd" d="M135.372 171.483C135.488 171.657 135.987 171.56 136.093 171.192C136.169 170.805 135.958 169.76 135.862 169.363C135.737 168.966 135.439 168.782 135.372 168.889C135.286 168.976 135.276 169.44 135.305 169.905C135.276 170.34 135.247 171.241 135.372 171.483Z" fill="#C03018"/>
<path fill-rule="evenodd" clip-rule="evenodd" d="M135.756 171.802C135.804 171.889 135.776 171.967 135.709 172.073C135.631 172.16 135.478 172.257 135.286 172.364C135.535 172.441 135.795 172.538 136.102 172.654C136.39 172.77 136.736 172.993 137.034 173.022C137.293 172.993 137.534 172.877 137.755 172.596C137.678 172.567 137.476 172.489 137.149 172.364C136.813 172.218 136.362 172.044 135.756 171.802Z" fill="#C03018"/>
<path fill-rule="evenodd" clip-rule="evenodd" d="M134.383 172.683C134.411 172.596 133.816 172.576 133.672 172.664C133.499 172.731 133.528 172.915 133.355 173.109C133.114 173.273 132.461 173.544 132.394 173.66C132.317 173.738 132.75 173.786 132.951 173.699C133.105 173.564 133.278 173.273 133.509 173.09C133.748 172.915 134.335 172.741 134.383 172.683Z" fill="#A52914"/>
<path fill-rule="evenodd" clip-rule="evenodd" d="M133.067 172.799C133.201 172.983 133.662 172.857 133.777 172.499C133.845 172.083 133.672 171.086 133.556 170.67C133.431 170.273 133.134 170.089 133.066 170.195C132.98 170.283 132.97 170.747 132.999 171.212C132.97 171.638 132.941 172.567 133.067 172.799Z" fill="#C03018"/>
<path fill-rule="evenodd" clip-rule="evenodd" d="M133.403 173.138C133.422 173.196 133.403 173.235 133.307 173.36C133.201 173.457 133.019 173.593 132.798 173.767C132.97 173.912 133.24 174.047 133.605 174.135C133.931 174.212 134.536 174.338 134.901 174.29C135.267 174.222 135.526 174.096 135.756 173.834C135.295 173.931 134.921 173.893 134.517 173.796C134.123 173.66 133.739 173.467 133.403 173.138Z" fill="#C03018"/>
<path fill-rule="evenodd" clip-rule="evenodd" d="M137.725 170.224C137.601 170.118 137.591 169.75 137.591 169.344C137.591 168.928 137.534 168.182 137.639 167.892C137.697 167.582 137.918 167.456 138.043 167.621C138.148 167.766 138.321 168.463 138.379 168.821C138.408 169.17 138.398 169.489 138.312 169.74C138.187 169.973 137.831 170.273 137.725 170.224Z" fill="#A52914"/>
<path fill-rule="evenodd" clip-rule="evenodd" d="M137.639 170.583C137.812 170.573 138.052 170.747 138.398 170.921C138.734 171.057 139.483 171.318 139.608 171.483C139.676 171.618 139.244 171.928 138.869 171.85C138.475 171.744 137.514 171.26 137.322 171.037C137.092 170.805 137.456 170.602 137.639 170.583Z" fill="#A52914"/>
<path fill-rule="evenodd" clip-rule="evenodd" d="M140.079 169.344C139.973 169.121 139.945 168.279 139.993 167.824C140.012 167.35 140.233 166.585 140.358 166.537C140.483 166.46 140.704 167.079 140.762 167.505C140.771 167.931 140.704 168.724 140.598 169.063C140.445 169.373 140.185 169.518 140.079 169.344Z" fill="#A52914"/>
<path fill-rule="evenodd" clip-rule="evenodd" d="M139.609 170.089C140.051 170.312 140.492 170.495 140.896 170.602C141.319 170.718 141.914 170.757 142.058 170.718C142.154 170.612 141.847 170.273 141.539 170.108C141.213 169.934 140.723 169.799 140.108 169.702C140.002 169.847 139.925 169.954 139.839 170.021C139.752 170.069 139.676 170.118 139.609 170.089Z" fill="#A52914"/>
<path fill-rule="evenodd" clip-rule="evenodd" d="M141.876 168.686C142.183 168.366 142.394 167.921 142.509 167.35C142.615 166.73 142.414 165.579 142.529 165.201C142.625 164.824 142.999 164.94 143.135 165.182C143.25 165.424 143.288 166.092 143.25 166.624C143.173 167.108 143.029 167.64 142.779 168.182C143.24 168.482 143.566 168.763 143.759 169.063C143.941 169.353 143.999 169.76 143.893 169.905C143.739 170.002 143.259 169.934 142.932 169.74C142.577 169.528 142.25 169.189 141.876 168.686Z" fill="#A52914"/>
<path fill-rule="evenodd" clip-rule="evenodd" d="M143.422 167.863C143.653 167.931 143.874 167.882 144.047 167.679C144.21 167.476 144.325 167.195 144.47 166.682C144.604 166.14 144.681 164.901 144.854 164.494C144.998 164.069 145.248 163.982 145.344 164.195C145.421 164.388 145.334 165.201 145.344 165.627C145.334 166.034 145.199 166.353 145.238 166.547C145.248 166.721 145.305 166.74 145.411 166.643C145.286 166.682 145.171 166.808 145.104 166.914C145.017 167.001 144.902 167.224 144.94 167.36C144.969 167.524 145.152 167.553 145.305 167.814C145.431 168.027 145.738 168.444 145.709 168.695C145.652 168.918 145.19 169.237 144.989 169.17C144.758 169.053 144.546 168.347 144.316 168.134C144.028 167.911 143.768 167.834 143.422 167.863Z" fill="#A52914"/>
<path fill-rule="evenodd" clip-rule="evenodd" d="M145.661 166.73C145.795 166.779 145.959 166.769 146.112 166.595C146.266 166.411 146.477 166.295 146.631 165.763C146.746 165.172 146.698 163.72 146.852 163.314C146.986 162.936 147.342 163.043 147.438 163.411C147.515 163.749 147.332 164.843 147.303 165.278C147.236 165.656 147.063 165.656 147.121 165.763C147.16 165.84 147.457 165.917 147.64 165.85C147.823 165.782 148.034 165.588 148.197 165.308C148.322 164.979 148.36 164.543 148.466 164.04C148.562 163.488 148.687 162.385 148.802 162.259C148.888 162.162 149.119 162.994 149.119 163.411C149.081 163.808 148.725 164.408 148.754 164.65C148.783 164.872 148.985 164.882 149.321 164.717C149.023 164.814 148.869 164.892 148.754 165.056C148.668 165.182 148.668 165.308 148.716 165.579C148.725 165.821 148.918 166.247 148.85 166.595C148.773 166.914 148.571 167.195 148.245 167.476C148.283 167.031 148.264 166.692 148.11 166.46C147.947 166.198 147.515 166.034 147.371 166.072C147.207 166.101 147.313 166.305 147.275 166.643C147.255 166.963 147.198 167.689 147.14 167.999C147.035 168.27 146.9 168.396 146.698 168.337C146.785 167.931 146.804 167.602 146.718 167.389C146.612 167.156 146.391 167.079 146.198 167.001C145.987 166.895 145.632 166.827 145.545 166.798C145.449 166.74 145.487 166.73 145.661 166.73Z" fill="#910000"/>
<path fill-rule="evenodd" clip-rule="evenodd" d="M149.407 164.466C149.532 164.408 149.647 164.214 149.792 163.885C149.897 163.507 150.099 162.849 150.214 162.433C150.31 161.978 150.387 161.465 150.483 161.378C150.57 161.31 150.733 161.514 150.713 162.026C150.665 162.52 150.492 163.256 150.195 164.311C150.377 164.282 150.55 164.165 150.713 163.924C150.867 163.682 151.05 163.343 151.185 162.908C151.271 162.462 151.338 161.485 151.424 161.282C151.521 161.049 151.684 161.368 151.76 161.601C151.818 161.843 151.828 162.24 151.79 162.637C151.722 162.994 151.588 163.401 151.386 163.817C151.482 164.156 151.482 164.514 151.424 164.853C151.348 165.192 151.04 165.792 150.982 165.831C150.886 165.821 151.107 165.192 151.05 164.95C150.954 164.698 150.858 164.427 150.685 164.398C150.512 164.311 150.233 164.379 150.147 164.601C150.032 164.833 150.233 165.288 150.128 165.666C150.003 165.995 149.792 166.275 149.455 166.547C149.705 166.217 149.792 165.908 149.792 165.579C149.743 165.221 149.426 164.795 149.359 164.601C149.282 164.417 149.311 164.359 149.407 164.466Z" fill="#910000"/>
</g>
<g clip-path="url(#clip2)">
<path fill-rule="evenodd" clip-rule="evenodd" d="M236.182 155.091C236.204 158.341 235.56 161.563 234.287 164.572C233.014 167.581 231.137 170.317 228.763 172.622C226.39 174.928 223.568 176.758 220.459 178.007C217.35 179.255 214.016 179.898 210.649 179.898C207.282 179.898 203.948 179.255 200.839 178.007C197.73 176.758 194.908 174.928 192.535 172.622C190.162 170.317 188.285 167.581 187.011 164.572C185.738 161.563 185.094 158.341 185.116 155.091C185.094 151.841 185.738 148.619 187.011 145.61C188.285 142.601 190.162 139.865 192.535 137.56C194.908 135.254 197.73 133.424 200.839 132.175C203.948 130.927 207.282 130.284 210.649 130.284C214.016 130.284 217.35 130.927 220.459 132.175C223.568 133.424 226.39 135.254 228.763 137.56C231.137 139.865 233.014 142.601 234.287 145.61C235.56 148.619 236.204 151.841 236.182 155.091Z" fill="url(#paint16_linear)"/>
<path d="M222.071 177.142C233.84 160.55 234.33 144.336 211.786 130.564" stroke="#B2B2B2" stroke-width="0.387" stroke-dasharray="1.55 0.77"/>
<path d="M214.285 178.578C226.054 161.986 226.545 145.772 204 132" stroke="#B2B2B2" stroke-width="0.387" stroke-dasharray="1.55 0.77"/>
<path d="M224.463 175.374C232.525 164.678 237.081 144.69 214.536 130.918" stroke="#B4B1B1" stroke-width="0.387" stroke-dasharray="1.55 0.77"/>
<g opacity="0.421" filter="url(#filter0_f)">
<path fill-rule="evenodd" clip-rule="evenodd" d="M203.355 146.425C203.355 147.136 203.046 147.818 202.496 148.322C201.947 148.825 201.202 149.107 200.425 149.107C199.647 149.107 198.902 148.825 198.353 148.322C197.803 147.818 197.495 147.136 197.495 146.425C197.495 145.713 197.803 145.031 198.353 144.528C198.902 144.025 199.647 143.742 200.425 143.742C201.202 143.742 201.947 144.025 202.496 144.528C203.046 145.031 203.355 145.713 203.355 146.425Z" fill="#E7165A"/>
</g>
<g opacity="0.463" filter="url(#filter1_f)">
<path fill-rule="evenodd" clip-rule="evenodd" d="M198.571 163.522C198.571 164.234 198.262 164.916 197.713 165.419C197.163 165.922 196.418 166.205 195.641 166.205C194.864 166.205 194.119 165.922 193.569 165.419C193.02 164.916 192.711 164.234 192.711 163.522C192.711 162.811 193.02 162.128 193.569 161.625C194.119 161.122 194.864 160.84 195.641 160.84C196.418 160.84 197.163 161.122 197.713 161.625C198.262 162.128 198.571 162.811 198.571 163.522Z" fill="#AD031D"/>
</g>
</g>
</g>
<g opacity="0.9">
<path d="M20.0026 205.618V222.581H20.0078C20.1075 227.237 31.2709 230.999 45.0349 230.999C58.7989 230.999 69.9683 227.237 70.067 222.581H70.0723V205.618H20.0013H20.0026Z" fill="#333333"/>
<path d="M70.0696 205.562C70.1011 206.683 69.4769 207.794 68.2329 208.833C66.989 209.871 65.15 210.816 62.8222 211.612C60.4944 212.408 57.724 213.04 54.6711 213.471C51.6181 213.902 48.3431 214.125 45.0354 214.125C41.7276 214.125 38.4526 213.902 35.3997 213.471C32.3467 213.04 29.5763 212.408 27.2485 211.612C24.9208 210.816 23.0818 209.871 21.8378 208.833C20.5939 207.794 19.9696 206.683 20.0011 205.562C19.9696 204.442 20.5939 203.33 21.8378 202.292C23.0818 201.253 24.9208 200.309 27.2485 199.513C29.5763 198.717 32.3467 198.085 35.3997 197.653C38.4526 197.222 41.7276 197 45.0354 197C48.3431 197 51.6181 197.222 54.6711 197.653C57.724 198.085 60.4944 198.717 62.8222 199.513C65.15 200.309 66.989 201.253 68.2329 202.292C69.4769 203.33 70.1011 204.442 70.0696 205.562Z" fill="black"/>
<path d="M64.6194 205.563C64.6441 206.375 64.1558 207.18 63.1828 207.933C62.2098 208.686 60.7713 209.37 58.9505 209.947C57.1298 210.524 54.9628 210.982 52.5748 211.295C50.1868 211.607 47.6251 211.768 45.0378 211.768C42.4505 211.768 39.8888 211.607 37.5008 211.295C35.1128 210.982 32.9458 210.524 31.1251 209.947C29.3043 209.37 27.8659 208.686 26.8929 207.933C25.9198 207.18 25.4316 206.375 25.4562 205.563C25.4316 204.751 25.9198 203.945 26.8929 203.193C27.8659 202.44 29.3043 201.755 31.1251 201.178C32.9458 200.601 35.1128 200.143 37.5008 199.831C39.8888 199.518 42.4505 199.357 45.0378 199.357C47.6251 199.357 50.1868 199.518 52.5748 199.831C54.9628 200.143 57.1298 200.601 58.9505 201.178C60.7713 201.755 62.2098 202.44 63.1828 203.193C64.1558 203.945 64.6441 204.751 64.6194 205.563Z" fill="black" stroke="#393939" stroke-width="5"/>
<path d="M64.0131 205.808C64.037 206.588 63.5638 207.361 62.6209 208.084C61.678 208.806 60.2841 209.463 58.5197 210.017C56.7553 210.571 54.6554 211.011 52.3413 211.311C50.0272 211.611 47.5448 211.766 45.0376 211.766C42.5303 211.766 40.048 211.611 37.7339 211.311C35.4198 211.011 33.3198 210.571 31.5554 210.017C29.791 209.463 28.3971 208.806 27.4542 208.084C26.5113 207.361 26.0381 206.588 26.062 205.808C26.0381 205.029 26.5113 204.255 27.4542 203.533C28.3971 202.81 29.791 202.153 31.5554 201.599C33.3198 201.045 35.4198 200.606 37.7339 200.306C40.048 200.006 42.5303 199.851 45.0376 199.851C47.5448 199.851 50.0272 200.006 52.3413 200.306C54.6554 200.606 56.7553 201.045 58.5197 201.599C60.2841 202.153 61.678 202.81 62.6209 203.533C63.5638 204.255 64.037 205.029 64.0131 205.808Z" fill="black" stroke="#272D39" stroke-width="5.1839"/>
<path d="M41.3139 230.775C30.2829 230.127 22.0956 227.414 20.3925 223.842L20.1071 223.243L20.1135 215.158C20.1178 209.877 20.1603 207.172 20.2362 207.36C20.6825 208.463 22.3246 209.838 24.3733 210.824C33.2627 215.104 51.7594 215.653 62.8634 211.966C66.3908 210.794 69.0729 209.043 69.8042 207.434C70.0171 206.965 70.0221 207.163 69.9992 215.158L69.9757 223.363L69.6537 223.966C67.9941 227.073 61.4225 229.534 52.2205 230.493C49.9377 230.731 43.4308 230.899 41.3131 230.775L41.3139 230.775Z" fill="url(#paint17_linear)"/>
</g>
<g opacity="0.9">
<path d="M207.787 195.476C205.769 196.083 203.808 196.88 201.953 197.867C199.129 199.37 196.594 201.369 194.486 203.709C192.207 206.228 190.448 209.141 189.151 212.202C188.157 214.55 187.438 216.991 186.936 219.462C186.647 220.941 186.313 222.415 186.089 223.903C185.985 224.602 185.975 225.323 186.186 225.997C186.389 226.72 186.694 227.411 186.966 228.111C187.495 229.347 188.15 230.563 189.145 231.512C190.015 232.315 191.16 232.773 192.289 233.164C193.584 233.617 194.912 234.002 196.278 234.235C198.255 234.589 200.275 234.736 202.296 234.744C204.455 234.738 206.622 234.494 208.731 233.992C210.625 233.564 212.508 233.089 214.384 232.591C215.588 232.256 216.787 231.877 217.907 231.323C219.681 230.486 221.323 229.414 222.922 228.302C224.932 226.891 226.798 225.283 228.396 223.453C229.839 221.834 231.109 220.071 232.11 218.18C232.748 216.941 233.203 215.63 233.606 214.313C234.177 212.476 234.669 210.62 235.158 208.763C235.557 207.119 235.807 205.421 235.61 203.751C235.425 201.902 234.658 198.266 233.581 196.727C232.65 195.395 232.25 195.66 230.964 194.643C230.073 193.954 228.453 193.757 227.312 193.497C226.285 193.258 225.214 193.262 224.166 193.145C223.254 193.057 222.333 193.004 221.413 193.073C219.861 193.156 218.317 193.363 216.773 193.549C215.478 193.71 214.188 193.921 212.913 194.205C211.878 194.438 210.857 194.726 209.823 194.961C209.142 195.124 208.461 195.288 207.787 195.476L207.787 195.476Z" fill="#784421" stroke="black"/>
<path d="M230.086 196.442L228.364 196.615C228.364 196.615 223.619 192.69 216.139 193.72C222.071 192.041 225.886 193.79 230.086 196.443L230.086 196.442Z" fill="white" stroke="black"/>
<path d="M187.835 229.805C187.835 229.805 210.776 196.859 233.034 196.01" stroke="black" stroke-width="2.014"/>
<path d="M188.096 230.105C188.096 230.105 220.626 236.688 233.192 215.52" stroke="black"/>
<path d="M203.203 230.634L209.471 230.168C209.161 224.214 207.56 217.306 201.568 213.654L196.821 218.393C196.821 218.393 203.595 224.377 203.203 230.634L203.203 230.634Z" fill="white" stroke="black" stroke-width="0.989"/>
<path d="M187.571 216.569L196.355 218.178L200.952 213.376C197.96 211.287 194.382 210.079 189.206 211.967" fill="white"/>
<path d="M187.571 216.569L196.355 218.178L200.952 213.376C197.96 211.287 194.382 210.079 189.206 211.967" stroke="black" stroke-width="1.003"/>
<path d="M204.867 208.229C204.756 208.467 206.958 210.539 207.118 210.425C213.199 202.703 224.948 197.981 225.985 198.13L223.997 196.584C223.997 196.584 220.502 196.886 212.661 202.409C204.828 207.927 204.867 208.229 204.867 208.229L204.867 208.229Z" fill="white" stroke="black" stroke-width="1.079"/>
<path d="M205.662 205.815C205.466 205.952 205.353 206.164 205.185 206.326C205.092 206.432 204.999 206.537 204.906 206.642C206.169 207.489 207.439 208.333 208.612 209.29C208.725 209.39 208.83 209.499 208.913 209.624C209.103 209.376 209.344 209.169 209.552 208.935C209.644 208.838 209.736 208.741 209.828 208.644C209.215 208.152 208.62 207.637 207.964 207.195C207.79 207.074 207.602 206.975 207.403 206.897C207.244 206.835 207.184 206.673 207.06 206.573C206.729 206.257 206.329 206.006 205.899 205.825C205.825 205.801 205.738 205.783 205.662 205.815L205.662 205.815Z" fill="white" stroke="black"/>
<path d="M206.79 204.881C206.79 204.881 210.908 207.597 210.785 207.881C210.847 207.864 210.831 207.806 210.831 207.806L211.713 206.881C211.713 206.881 207.951 203.756 207.564 204.047L207.502 204.064L206.79 204.881L206.79 204.881Z" fill="white" stroke="black"/>
<path d="M209.515 202.898C209.515 202.898 213.634 205.614 213.51 205.898C213.572 205.881 213.557 205.823 213.557 205.823L214.439 204.897C214.439 204.897 210.676 201.772 210.289 202.064L210.227 202.081L209.515 202.898L209.515 202.898Z" fill="white" stroke="black"/>
<path d="M209.515 202.898C209.515 202.898 213.634 205.614 213.51 205.898C213.572 205.881 213.557 205.823 213.557 205.823L214.439 204.897C214.439 204.897 210.676 201.772 210.289 202.064L210.227 202.081L209.515 202.898L209.515 202.898Z" fill="white" stroke="black"/>
<path d="M212.104 201.158C212.104 201.158 215.925 203.705 215.811 203.969C215.869 203.954 215.854 203.899 215.854 203.899L216.669 203.037C216.669 203.037 213.177 200.109 212.819 200.381L212.762 200.396L212.104 201.158L212.104 201.158Z" fill="white" stroke="black" stroke-width="0.93"/>
<path d="M214.523 199.476C214.523 199.476 218.383 202.186 218.187 202.435C218.258 202.424 218.254 202.37 218.254 202.37L219.411 201.586C219.411 201.586 216.026 198.528 215.543 198.768L215.472 198.78L214.523 199.476L214.523 199.476Z" fill="white" stroke="black" stroke-width="0.997"/>
<path d="M217.314 198.249C217.314 198.249 220.787 200.748 220.613 200.975C220.676 200.965 220.672 200.916 220.672 200.916L221.705 200.205C221.705 200.205 218.655 197.39 218.224 197.607C218.161 197.617 218.161 197.617 218.161 197.617L217.314 198.249L217.314 198.249Z" fill="white" stroke="black" stroke-width="0.902"/>
<path d="M220.002 197.118C220.002 197.118 223.401 199.339 223.223 199.551C223.286 199.541 223.283 199.496 223.283 199.496L224.325 198.82C224.325 198.82 221.354 196.299 220.921 196.508L220.858 196.518L220.002 197.118L220.002 197.118Z" fill="white" stroke="black" stroke-width="0.862"/>
<path d="M223 196.421C223 196.421 225.89 198.148 225.733 198.321C225.788 198.312 225.786 198.276 225.786 198.276L226.695 197.715C226.695 197.715 224.178 195.741 223.801 195.916L223.747 195.926L223 196.421L223 196.421Z" fill="white" stroke="black" stroke-width="0.717"/>
<path d="M228.763 196.959C228.763 196.959 235.399 202.729 235.117 208.871C235.693 206.095 235.754 206.253 235.635 205.013C234.325 201.888 233.37 198.188 230.222 196.79C230.414 196.783 230.277 196.819 230.277 196.819L228.763 196.959L228.763 196.959Z" fill="white" stroke="black"/>
</g>
<g opacity="0.9">
<g clip-path="url(#clip3)">
<path d="M128.219 238.472C141.817 238.472 152.841 227.433 152.841 213.814C152.841 200.196 141.817 189.156 128.219 189.156C114.62 189.156 103.596 200.196 103.596 213.814C103.596 227.433 114.62 238.472 128.219 238.472Z" fill="#000080" fill-opacity="0.57414"/>
<path fill-rule="evenodd" clip-rule="evenodd" d="M115.087 207.575C123.349 205.87 125.975 204.936 125.975 204.936C125.975 204.936 124.286 211.655 125.975 204.936C127.343 199.493 130.408 195.023 134.511 193.39C138.613 191.758 143.539 194.655 143.539 194.655C137.106 189.531 131.72 189.432 131.72 189.432C131.72 189.432 136.207 189.423 131.611 189.487C119.737 189.652 115.087 207.575 115.087 207.575L115.087 207.575Z" fill="white"/>
<path fill-rule="evenodd" clip-rule="evenodd" d="M109.122 207.959C110.107 194.187 119.218 190.861 119.218 190.861C119.218 190.861 107.848 194.877 105.265 206.558C106.012 207.709 107.795 207.992 109.123 207.96L109.122 207.959Z" fill="white"/>
<path fill-rule="evenodd" clip-rule="evenodd" d="M112.03 232.4C113.955 233.483 114.321 234.209 117.16 234.412C120.595 237.303 120.093 236.829 121.596 237.554C116.183 236.2 112.03 232.4 112.03 232.4H112.03Z" fill="white"/>
<path fill-rule="evenodd" clip-rule="evenodd" d="M150.663 223.851C145.709 234.354 137.244 236.898 135.148 237.499C133.052 237.581 129.541 238.401 123.171 234.271C124.941 233.807 127.908 233.533 133.869 231.646C137.108 233.588 144.639 235.827 150.663 223.851V223.851Z" fill="white"/>
<path fill-rule="evenodd" clip-rule="evenodd" d="M109.342 208.058C111.786 208.142 113.5 207.868 114.989 207.629C121.596 187.588 132.439 189.518 132.439 189.518C132.439 189.518 110.721 184.824 109.342 208.058V208.058Z" fill="#FFCC00"/>
<path fill-rule="evenodd" clip-rule="evenodd" d="M104.081 216.85C110.469 218.455 132.027 214.297 133.007 214.589C134.023 216.084 135.148 221.117 135.221 221.737C135.293 222.354 113.052 232.899 107.109 225.963C107.079 225.928 107.044 225.897 107.021 225.857C104.078 220.721 104.081 216.85 104.081 216.85L104.081 216.85Z" fill="#FFCC00"/>
<path fill-rule="evenodd" clip-rule="evenodd" d="M130.617 195.991C131.9 194.65 134.364 193.257 135.647 193.412C154.707 204.288 151.853 223.221 147.042 229.126C144.476 232.259 142.602 232.478 142.063 232.762C148.941 214.557 131.52 196.529 130.617 195.991V195.991Z" fill="#FFCC00"/>
<path fill-rule="evenodd" clip-rule="evenodd" d="M117.078 234.432C117.819 234.481 120.123 234.546 123.055 234.287C129.5 239.516 137.488 236.752 136.556 237.071C122.825 241.502 117.077 234.432 117.077 234.432H117.078Z" fill="#FFCC00"/>
<path fill-rule="evenodd" clip-rule="evenodd" d="M149.325 201.132C149.792 201.936 149.994 203.51 150.114 203.765C152.969 209.442 152.882 216.467 152.848 213.012C152.791 207.277 149.325 201.132 149.325 201.132V201.132Z" fill="#FFCC00"/>
<path fill-rule="evenodd" clip-rule="evenodd" d="M107.293 201.011C106.128 203.961 105.243 206.488 105.243 206.488C107.375 210.541 122.724 205.758 125.929 205.131C128.024 205.161 133.15 214.426 133.15 214.426C109.682 218.207 104.326 217.172 104.191 216.88C103.947 216.356 103.755 216.419 103.665 215.111C103.126 207.279 107.293 201.012 107.293 201.012L107.293 201.011Z" fill="#000E83"/>
<path fill-rule="evenodd" clip-rule="evenodd" d="M107.002 225.876C107.769 227.484 108.902 230.131 113.837 233.716C113.874 233.742 113.957 233.707 114.037 233.748C118.637 236.094 133.469 232.086 134.143 231.538C134.843 230.969 136.202 224.252 135.243 221.722C112.203 233.783 107.002 225.876 107.002 225.876L107.002 225.876Z" fill="#000E83"/>
<path fill-rule="evenodd" clip-rule="evenodd" d="M126.019 204.883C126.49 202.277 130.407 195.746 130.875 196.212C146.719 211.989 144.471 230.191 141.862 232.647C140.07 233.12 137.656 234.103 134.129 231.604C139.646 217.296 126.018 204.883 126.018 204.883L126.019 204.883Z" fill="#000E83"/>
<path fill-rule="evenodd" clip-rule="evenodd" d="M135.638 193.228C152.166 203.057 153.338 221.002 147.191 228.952C151.246 224.641 155.64 215.044 150.067 203.794C149.813 199.951 143.274 193.846 142.983 194.152C142.711 194.436 144.044 195.354 142.969 194.722C138.678 192.199 135.638 193.228 135.638 193.228L135.638 193.228Z" fill="#000E83"/>
</g>
</g>
<rect x="2.5" y="2.5" width="251" height="251" stroke="#09460C" stroke-width="5"/>
</g>
<defs>
<filter id="filter0_f" x="155.685" y="101.932" width="89.4788" height="88.9843" filterUnits="userSpaceOnUse" color-interpolation-filters="sRGB">
<feFlood flood-opacity="0" result="BackgroundImageFix"/>
<feBlend mode="normal" in="SourceGraphic" in2="BackgroundImageFix" result="shape"/>
<feGaussianBlur stdDeviation="20.9047" result="effect1_foregroundBlur"/>
</filter>
<filter id="filter1_f" x="156.355" y="124.484" width="78.572" height="78.0775" filterUnits="userSpaceOnUse" color-interpolation-filters="sRGB">
<feFlood flood-opacity="0" result="BackgroundImageFix"/>
<feBlend mode="normal" in="SourceGraphic" in2="BackgroundImageFix" result="shape"/>
<feGaussianBlur stdDeviation="18.178" result="effect1_foregroundBlur"/>
</filter>
<linearGradient id="paint0_linear" x1="49.3117" y1="142.322" x2="38.0277" y2="141.223" gradientUnits="userSpaceOnUse">
<stop stop-color="#F57936"/>
<stop offset="1" stop-color="#F57936" stop-opacity="0"/>
</linearGradient>
<linearGradient id="paint1_linear" x1="48.1214" y1="139.048" x2="47.0238" y2="133.782" gradientUnits="userSpaceOnUse">
<stop stop-color="#F3813B"/>
<stop offset="1" stop-color="#F3813B" stop-opacity="0"/>
</linearGradient>
<linearGradient id="paint2_linear" x1="52.1661" y1="143.993" x2="51.5126" y2="136.144" gradientUnits="userSpaceOnUse">
<stop stop-color="#F9A465"/>
<stop offset="1" stop-color="#F9A465" stop-opacity="0"/>
</linearGradient>
<linearGradient id="paint3_linear" x1="54.9362" y1="147.14" x2="63.4157" y2="144.77" gradientUnits="userSpaceOnUse">
<stop stop-color="#FAA668"/>
<stop offset="1" stop-color="#FAA668" stop-opacity="0"/>
</linearGradient>
<linearGradient id="paint4_linear" x1="58.6871" y1="149.943" x2="64.02" y2="153.749" gradientUnits="userSpaceOnUse">
<stop stop-color="#F17E39"/>
<stop offset="1" stop-color="#F17E39" stop-opacity="0"/>
</linearGradient>
<linearGradient id="paint5_linear" x1="56.0394" y1="151.301" x2="56.7126" y2="158.557" gradientUnits="userSpaceOnUse">
<stop stop-color="#F67A34"/>
<stop offset="1" stop-color="#F67A34" stop-opacity="0"/>
</linearGradient>
<linearGradient id="paint6_linear" x1="53.6249" y1="148.119" x2="47.7025" y2="154.293" gradientUnits="userSpaceOnUse">
<stop stop-color="#FC9F59"/>
<stop offset="1" stop-color="#FC9F59" stop-opacity="0"/>
</linearGradient>
<linearGradient id="paint7_linear" x1="49.4791" y1="143.727" x2="42.5307" y2="148.21" gradientUnits="userSpaceOnUse">
<stop stop-color="#FC9F59"/>
<stop offset="1" stop-color="#FC9F59" stop-opacity="0"/>
</linearGradient>
<linearGradient id="paint8_linear" x1="21.2459" y1="165.013" x2="41.9911" y2="148.267" gradientUnits="userSpaceOnUse">
<stop stop-color="#9F410D"/>
<stop offset="1" stop-color="#9F410D" stop-opacity="0"/>
</linearGradient>
<linearGradient id="paint9_linear" x1="24.5105" y1="141.578" x2="39.7479" y2="141.339" gradientUnits="userSpaceOnUse">
<stop stop-color="#A1420E"/>
<stop offset="1" stop-color="#A1420E" stop-opacity="0"/>
</linearGradient>
<linearGradient id="paint10_linear" x1="40.9749" y1="129.869" x2="44.1244" y2="134.459" gradientUnits="userSpaceOnUse">
<stop stop-color="#A1420E"/>
<stop offset="1" stop-color="#A1420E" stop-opacity="0"/>
</linearGradient>
<linearGradient id="paint11_linear" x1="58.2982" y1="131.059" x2="55.6023" y2="135.126" gradientUnits="userSpaceOnUse">
<stop stop-color="#A1420E"/>
<stop offset="1" stop-color="#A1420E" stop-opacity="0"/>
</linearGradient>
<linearGradient id="paint12_linear" x1="68.6275" y1="142.259" x2="63.1443" y2="144.77" gradientUnits="userSpaceOnUse">
<stop stop-color="#A1420E"/>
<stop offset="1" stop-color="#A1420E" stop-opacity="0"/>
</linearGradient>
<linearGradient id="paint13_linear" x1="35.7777" y1="176.473" x2="49.4382" y2="153.626" gradientUnits="userSpaceOnUse">
<stop stop-color="#A1420D"/>
<stop offset="1" stop-color="#A1420D" stop-opacity="0"/>
</linearGradient>
<linearGradient id="paint14_linear" x1="55.1737" y1="177.385" x2="56.2067" y2="159.562" gradientUnits="userSpaceOnUse">
<stop stop-color="#A1420D"/>
<stop offset="1" stop-color="#A1420D" stop-opacity="0"/>
</linearGradient>
<linearGradient id="paint15_linear" x1="70.0213" y1="159.67" x2="64.02" y2="154.287" gradientUnits="userSpaceOnUse">
<stop stop-color="#A3430E"/>
<stop offset="1" stop-color="#A3430E" stop-opacity="0"/>
</linearGradient>
<linearGradient id="paint16_linear" x1="211.426" y1="154.379" x2="185.14" y2="157.771" gradientUnits="userSpaceOnUse">
<stop stop-color="#870B1A"/>
<stop offset="1" stop-color="#6A5570"/>
</linearGradient>
<linearGradient id="paint17_linear" x1="20.1081" y1="166.885" x2="53.7162" y2="166.885" gradientUnits="userSpaceOnUse">
<stop/>
<stop offset="0.21087" stop-color="white" stop-opacity="0.2028"/>
<stop offset="1" stop-opacity="0"/>
</linearGradient>
<clipPath id="clip0">
<rect width="256" height="256" fill="white"/>
</clipPath>
<clipPath id="clip1">
<rect x="102" y="130" width="51" height="50" fill="white"/>
</clipPath>
<clipPath id="clip2">
<rect x="180" y="121" width="71" height="71" fill="white"/>
</clipPath>
<clipPath id="clip3">
<rect x="99" y="176" width="57" height="81" fill="white"/>
</clipPath>
</defs>
</svg>
