<svg xmlns="http://www.w3.org/2000/svg" xmlns:xlink="http://www.w3.org/1999/xlink" style="position:absolute;left: -100%;" height="0" width="0"><symbol id="icon-calendar" viewBox="0 0 14 16"><path fill-rule="evenodd" d="M13 2h-1v1.5c0 .28-.22.5-.5.5h-2c-.28 0-.5-.22-.5-.5V2H6v1.5c0 .28-.22.5-.5.5h-2c-.28 0-.5-.22-.5-.5V2H2c-.55 0-1 .45-1 1v11c0 .55.45 1 1 1h11c.55 0 1-.45 1-1V3c0-.55-.45-1-1-1zm0 12H2V5h11v9zM5 3H4V1h1v2zm6 0h-1V1h1v2zM6 7H5V6h1v1zm2 0H7V6h1v1zm2 0H9V6h1v1zm2 0h-1V6h1v1zM4 9H3V8h1v1zm2 0H5V8h1v1zm2 0H7V8h1v1zm2 0H9V8h1v1zm2 0h-1V8h1v1zm-8 2H3v-1h1v1zm2 0H5v-1h1v1zm2 0H7v-1h1v1zm2 0H9v-1h1v1zm2 0h-1v-1h1v1zm-8 2H3v-1h1v1zm2 0H5v-1h1v1zm2 0H7v-1h1v1zm2 0H9v-1h1v1z"/></symbol><symbol id="icon-clock-alt" viewBox="0 0 24 24"><circle cx="12" cy="12" r="10"/><path d="M12 6v6l4 2"/></symbol><symbol id="icon-clock" viewBox="0 0 14 16"><path fill-rule="evenodd" d="M8 8h3v2H7c-.55 0-1-.45-1-1V4h2v4zM7 2.3c3.14 0 5.7 2.56 5.7 5.7s-2.56 5.7-5.7 5.7A5.71 5.71 0 011.3 8c0-3.14 2.56-5.7 5.7-5.7zM7 1C3.14 1 0 4.14 0 8s3.14 7 7 7 7-3.14 7-7-3.14-7-7-7z"/></symbol><symbol id="icon-discord" viewBox="0 0 512 512"><path fill="#fff" d="M0 0h512v512H0z"/><path id="a" fill="#5865f2" d="M257 129q-26 0-42 3l-10-20q-39 6-77 24-67 102-54 211 41 31 93 47 12-16 20-32-24-10-31-16l7-5q49 21 95 21zm-62 175a34 37 0 111 0"/><use href="#a" transform="matrix(-1 0 0 1 512 0)"/></symbol><symbol id="icon-facebook" viewBox="0 0 512 512"><rect width="512" height="512" rx="15%" fill="#1877f2"/><path d="M355.6 330l11.4-74h-71v-48c0-20.2 9.9-40 41.7-40H370v-63s-29.3-5-57.3-5c-58.5 0-96.7 35.4-96.7 99.6V256h-65v74h65v182h80V330h59.6z" fill="#fff"/></symbol><symbol id="icon-home" viewBox="0 0 16 16"><path fill-rule="evenodd" d="M16 9l-3-3V2h-2v2L8 1 0 9h2l1 5c0 .55.45 1 1 1h8c.55 0 1-.45 1-1l1-5h2zm-4 5H9v-4H7v4H4L2.81 7.69 8 2.5l5.19 5.19L12 14z"/></symbol><symbol id="icon-instagram" viewBox="0 0 512 512"><rect width="512" height="512" rx="15%" fill="#d43377"/><g fill="none" stroke="#fff" stroke-width="29"><rect height="296" rx="78" width="296" x="108" y="108"/><circle cx="256" cy="256" r="69"/></g><circle cx="343" cy="169" fill="#fff" r="19"/></symbol><symbol id="icon-linkedin" viewBox="0 0 512 512"><rect width="512" height="512" rx="15%" fill="#0077b5"/><circle cx="142" cy="138" r="37"/><path stroke="#fff" stroke-width="66" d="M244 194v198M142 194v198"/><path d="M276 282c0-20 13-40 36-40 24 0 33 18 33 45v105h66V279c0-61-32-89-76-89-34 0-51 19-59 32"/></symbol><symbol id="icon-location" viewBox="0 0 12 16"><path fill-rule="evenodd" d="M6 0C2.69 0 0 2.5 0 5.5 0 10.02 6 16 6 16s6-5.98 6-10.5C12 2.5 9.31 0 6 0zm0 14.55C4.14 12.52 1 8.44 1 5.5 1 3.02 3.25 1 6 1c1.34 0 2.61.48 3.56 1.36.92.86 1.44 1.97 1.44 3.14 0 2.94-3.14 7.02-5 9.05zM8 5.5c0 1.11-.89 2-2 2-1.11 0-2-.89-2-2 0-1.11.89-2 2-2 1.11 0 2 .89 2 2z"/></symbol><symbol id="icon-tiktok" viewBox="0 0 512 512"><rect rx="15%" height="512" width="512" fill="#fff"/><path fill="#ff004f" d="M237 215a117 117 0 10100.6 115.4v-128a150 150 0 0088 28v-63a88 88 0 01-88-88H274V331a53.5 53.5 0 11-37-51z"/><path d="M219 200a117 117 0 10100.6 115.4v-128a150 150 0 0088 28v-63a88 88 0 01-88-88H256V316a53.5 53.5 0 11-37-51z" fill="#00f2ea"/></symbol><symbol id="icon-twitch" viewBox="0 0 512 512"><path fill="#fff" d="M0 0h512v512H0z"/><path d="M115 101l-22 56v228h78v42h44l41-42h63l85-85V101zm260 185l-48 48h-78l-42 42v-42h-65V130h233zm-48-100v85h-30v-85zm-78 0v85h-29v-85z" fill="#6441a4"/></symbol><symbol id="icon-twitter" viewBox="0 0 512 512"><rect width="512" height="512" rx="15%" fill="#1da1f3"/><path fill="#fff" d="M437 152a72 72 0 01-40 12 72 72 0 0032-40 72 72 0 01-45 17 72 72 0 00-122 65 200 200 0 01-145-74 72 72 0 0022 94 72 72 0 01-32-7 72 72 0 0056 69 72 72 0 01-32 1 72 72 0 0067 50 200 200 0 01-105 29 200 200 0 00309-179 200 200 0 0035-37"/></symbol><symbol id="icon-vk" viewBox="0 0 512 512"><rect width="512" height="512" rx="15%" fill="#5281b8"/><path fill="#fff" d="M274 363c5-1 14-3 14-15 0 0-1-30 13-34s32 29 51 42c14 9 25 8 25 8l51-1s26-2 14-23c-1-2-9-15-39-42-31-30-26-25 11-76 23-31 33-50 30-57-4-7-20-6-20-6h-57c-6 0-9 1-12 6 0 0-9 25-21 45-25 43-35 45-40 42-9-5-7-24-7-37 0-45 7-61-13-65-13-2-59-4-73 3-7 4-11 11-8 12 3 0 12 1 17 7 8 13 9 75-2 81-15 11-53-62-62-86-2-6-5-7-12-9H79c-6 0-15 1-11 13 27 56 83 193 184 192z"/></symbol><symbol id="icon-youtube" viewBox="0 0 512 512"><rect width="512" height="512" fill="#ed1d24" rx="15%"/><path d="M427 169c-4-15-17-27-32-31-34-9-239-10-278 0-15 4-28 16-32 31-9 38-10 135 0 174 4 15 17 27 32 31 36 10 241 10 278 0 15-4 28-16 32-31 9-36 9-137 0-174" fill="#fff"/><path fill="#ed1d24" d="M220 203v106l93-53"/></symbol></svg>